<?xml version="1.0" encoding="UTF-8" standalone="no"?><svg xmlns="http://www.w3.org/2000/svg" xmlns:xlink="http://www.w3.org/1999/xlink" contentScriptType="application/ecmascript" contentStyleType="text/css" height="292px" preserveAspectRatio="none" style="width:752px;height:292px;background:#FFFFFF;" version="1.1" viewBox="0 0 752 292" width="752px" zoomAndPan="magnify"><defs><filter height="300%" id="fgrcryagtv7sz" width="300%" x="-1" y="-1"><feGaussianBlur result="blurOut" stdDeviation="2.0"/><feColorMatrix in="blurOut" result="blurOut2" type="matrix" values="0 0 0 0 0 0 0 0 0 0 0 0 0 0 0 0 0 0 .4 0"/><feOffset dx="4.0" dy="4.0" in="blurOut2" result="blurOut3"/><feBlend in="SourceGraphic" in2="blurOut3" mode="normal"/></filter></defs><g><!--MD5=[b4f586f7c628b5a371c8c0ac9af5f898]
class AuthService--><rect codeLine="2" fill="#FEFECE" filter="url(#fgrcryagtv7sz)" height="73.6094" id="AuthService" style="stroke:#A80036;stroke-width:1.5;" width="106" x="17" y="32.5"/><ellipse cx="32" cy="48.5" fill="#B4A7E5" rx="11" ry="11" style="stroke:#A80036;stroke-width:1.0;"/><path d="M27.9219,44.2656 L27.9219,42.1094 L35.3125,42.1094 L35.3125,44.2656 L32.8438,44.2656 L32.8438,52.3438 L35.3125,52.3438 L35.3125,54.5 L27.9219,54.5 L27.9219,52.3438 L30.3906,52.3438 L30.3906,44.2656 L27.9219,44.2656 Z " fill="#000000"/><text fill="#000000" font-family="sans-serif" font-size="12" font-style="italic" lengthAdjust="spacing" textLength="74" x="46" y="52.6543">AuthService</text><line style="stroke:#A80036;stroke-width:1.5;" x1="18" x2="122" y1="64.5" y2="64.5"/><line style="stroke:#A80036;stroke-width:1.5;" x1="18" x2="122" y1="72.5" y2="72.5"/><ellipse cx="28" cy="83.5" fill="#84BE84" rx="3" ry="3" style="stroke:#038048;stroke-width:1.0;"/><text fill="#000000" font-family="sans-serif" font-size="11" lengthAdjust="spacing" textLength="33" x="37" y="86.7104">auth()</text><ellipse cx="28" cy="96.3047" fill="#84BE84" rx="3" ry="3" style="stroke:#038048;stroke-width:1.0;"/><text fill="#000000" font-family="sans-serif" font-size="11" lengthAdjust="spacing" textLength="74" x="37" y="99.5151">checkToken()</text><!--MD5=[53c55ef4eafbacd9d333114b2d9aefae]
class AccountService--><rect codeLine="7" fill="#FEFECE" filter="url(#fgrcryagtv7sz)" height="112.0234" id="AccountService" style="stroke:#A80036;stroke-width:1.5;" width="128" x="158" y="13.5"/><ellipse cx="173" cy="29.5" fill="#B4A7E5" rx="11" ry="11" style="stroke:#A80036;stroke-width:1.0;"/><path d="M168.9219,25.2656 L168.9219,23.1094 L176.3125,23.1094 L176.3125,25.2656 L173.8438,25.2656 L173.8438,33.3438 L176.3125,33.3438 L176.3125,35.5 L168.9219,35.5 L168.9219,33.3438 L171.3906,33.3438 L171.3906,25.2656 L168.9219,25.2656 Z " fill="#000000"/><text fill="#000000" font-family="sans-serif" font-size="12" font-style="italic" lengthAdjust="spacing" textLength="96" x="187" y="33.6543">AccountService</text><line style="stroke:#A80036;stroke-width:1.5;" x1="159" x2="285" y1="45.5" y2="45.5"/><line style="stroke:#A80036;stroke-width:1.5;" x1="159" x2="285" y1="53.5" y2="53.5"/><ellipse cx="169" cy="64.5" fill="#84BE84" rx="3" ry="3" style="stroke:#038048;stroke-width:1.0;"/><text fill="#000000" font-family="sans-serif" font-size="11" lengthAdjust="spacing" textLength="65" x="178" y="67.7104">getAthlets()</text><ellipse cx="169" cy="77.3047" fill="#84BE84" rx="3" ry="3" style="stroke:#038048;stroke-width:1.0;"/><text fill="#000000" font-family="sans-serif" font-size="11" lengthAdjust="spacing" textLength="74" x="178" y="80.5151">getTrainers()</text><ellipse cx="169" cy="90.1094" fill="#84BE84" rx="3" ry="3" style="stroke:#038048;stroke-width:1.0;"/><text fill="#000000" font-family="sans-serif" font-size="11" lengthAdjust="spacing" textLength="77" x="178" y="93.3198">getReferees()</text><ellipse cx="169" cy="102.9141" fill="#84BE84" rx="3" ry="3" style="stroke:#038048;stroke-width:1.0;"/><text fill="#000000" font-family="sans-serif" font-size="11" lengthAdjust="spacing" textLength="101" x="178" y="106.1245">getCompetitions()</text><ellipse cx="169" cy="115.7188" fill="#84BE84" rx="3" ry="3" style="stroke:#038048;stroke-width:1.0;"/><text fill="#000000" font-family="sans-serif" font-size="11" lengthAdjust="spacing" textLength="91" x="178" y="118.9292">updateAccount()</text><!--MD5=[b32389d8f9b98a852b7c0b14b54ffe15]
class AthletService--><rect codeLine="15" fill="#FEFECE" filter="url(#fgrcryagtv7sz)" height="86.4141" id="AthletService" style="stroke:#A80036;stroke-width:1.5;" width="152" x="321" y="26.5"/><ellipse cx="353.1" cy="42.5" fill="#B4A7E5" rx="11" ry="11" style="stroke:#A80036;stroke-width:1.0;"/><path d="M349.0219,38.2656 L349.0219,36.1094 L356.4125,36.1094 L356.4125,38.2656 L353.9438,38.2656 L353.9438,46.3438 L356.4125,46.3438 L356.4125,48.5 L349.0219,48.5 L349.0219,46.3438 L351.4906,46.3438 L351.4906,38.2656 L349.0219,38.2656 Z " fill="#000000"/><text fill="#000000" font-family="sans-serif" font-size="12" font-style="italic" lengthAdjust="spacing" textLength="82" x="370.9" y="46.6543">AthletService</text><line style="stroke:#A80036;stroke-width:1.5;" x1="322" x2="472" y1="58.5" y2="58.5"/><line style="stroke:#A80036;stroke-width:1.5;" x1="322" x2="472" y1="66.5" y2="66.5"/><ellipse cx="332" cy="77.5" fill="#84BE84" rx="3" ry="3" style="stroke:#038048;stroke-width:1.0;"/><text fill="#000000" font-family="sans-serif" font-size="11" lengthAdjust="spacing" textLength="126" x="341" y="80.7104">getOwnCompetitions()</text><ellipse cx="332" cy="90.3047" fill="#84BE84" rx="3" ry="3" style="stroke:#038048;stroke-width:1.0;"/><text fill="#000000" font-family="sans-serif" font-size="11" lengthAdjust="spacing" textLength="68" x="341" y="93.5151">getResults()</text><ellipse cx="332" cy="103.1094" fill="#84BE84" rx="3" ry="3" style="stroke:#038048;stroke-width:1.0;"/><text fill="#000000" font-family="sans-serif" font-size="11" lengthAdjust="spacing" textLength="80" x="341" y="106.3198">updateFields()</text><!--MD5=[553639ffdca8927dfcff9c865370156f]
class TrainerService--><rect codeLine="21" fill="#FEFECE" filter="url(#fgrcryagtv7sz)" height="86.4141" id="TrainerService" style="stroke:#A80036;stroke-width:1.5;" width="126" x="7" y="192"/><ellipse cx="24.25" cy="208" fill="#B4A7E5" rx="11" ry="11" style="stroke:#A80036;stroke-width:1.0;"/><path d="M20.1719,203.7656 L20.1719,201.6094 L27.5625,201.6094 L27.5625,203.7656 L25.0938,203.7656 L25.0938,211.8438 L27.5625,211.8438 L27.5625,214 L20.1719,214 L20.1719,211.8438 L22.6406,211.8438 L22.6406,203.7656 L20.1719,203.7656 Z " fill="#000000"/><text fill="#000000" font-family="sans-serif" font-size="12" font-style="italic" lengthAdjust="spacing" textLength="89" x="38.75" y="212.1543">TrainerService</text><line style="stroke:#A80036;stroke-width:1.5;" x1="8" x2="132" y1="224" y2="224"/><line style="stroke:#A80036;stroke-width:1.5;" x1="8" x2="132" y1="232" y2="232"/><ellipse cx="18" cy="243" fill="#84BE84" rx="3" ry="3" style="stroke:#038048;stroke-width:1.0;"/><text fill="#000000" font-family="sans-serif" font-size="11" lengthAdjust="spacing" textLength="90" x="27" y="246.2104">getOwnAthlets()</text><ellipse cx="18" cy="255.8047" fill="#84BE84" rx="3" ry="3" style="stroke:#038048;stroke-width:1.0;"/><text fill="#000000" font-family="sans-serif" font-size="11" lengthAdjust="spacing" textLength="100" x="27" y="259.0151">getAthletResults()</text><ellipse cx="18" cy="268.6094" fill="#84BE84" rx="3" ry="3" style="stroke:#038048;stroke-width:1.0;"/><text fill="#000000" font-family="sans-serif" font-size="11" lengthAdjust="spacing" textLength="80" x="27" y="271.8198">updateFields()</text><!--MD5=[8c21acccbad18313a183e08c97e05306]
class RefereeService--><rect codeLine="27" fill="#FEFECE" filter="url(#fgrcryagtv7sz)" height="73.6094" id="RefereeService" style="stroke:#A80036;stroke-width:1.5;" width="152" x="168" y="198"/><ellipse cx="194.7" cy="214" fill="#B4A7E5" rx="11" ry="11" style="stroke:#A80036;stroke-width:1.0;"/><path d="M190.6219,209.7656 L190.6219,207.6094 L198.0125,207.6094 L198.0125,209.7656 L195.5438,209.7656 L195.5438,217.8438 L198.0125,217.8438 L198.0125,220 L190.6219,220 L190.6219,217.8438 L193.0906,217.8438 L193.0906,209.7656 L190.6219,209.7656 Z " fill="#000000"/><text fill="#000000" font-family="sans-serif" font-size="12" font-style="italic" lengthAdjust="spacing" textLength="94" x="211.3" y="218.1543">RefereeService</text><line style="stroke:#A80036;stroke-width:1.5;" x1="169" x2="319" y1="230" y2="230"/><line style="stroke:#A80036;stroke-width:1.5;" x1="169" x2="319" y1="238" y2="238"/><ellipse cx="179" cy="249" fill="#84BE84" rx="3" ry="3" style="stroke:#038048;stroke-width:1.0;"/><text fill="#000000" font-family="sans-serif" font-size="11" lengthAdjust="spacing" textLength="126" x="188" y="252.2104">getOwnCompetitions()</text><ellipse cx="179" cy="261.8047" fill="#84BE84" rx="3" ry="3" style="stroke:#038048;stroke-width:1.0;"/><text fill="#000000" font-family="sans-serif" font-size="11" lengthAdjust="spacing" textLength="80" x="188" y="265.0151">updateFields()</text><!--MD5=[5132919f20c9c4014af42397226f265d]
class CompetitionService--><rect codeLine="32" fill="#FEFECE" filter="url(#fgrcryagtv7sz)" height="124.8281" id="CompetitionService" style="stroke:#A80036;stroke-width:1.5;" width="152" x="571" y="7"/><ellipse cx="586" cy="23" fill="#B4A7E5" rx="11" ry="11" style="stroke:#A80036;stroke-width:1.0;"/><path d="M581.9219,18.7656 L581.9219,16.6094 L589.3125,16.6094 L589.3125,18.7656 L586.8438,18.7656 L586.8438,26.8438 L589.3125,26.8438 L589.3125,29 L581.9219,29 L581.9219,26.8438 L584.3906,26.8438 L584.3906,18.7656 L581.9219,18.7656 Z " fill="#000000"/><text fill="#000000" font-family="sans-serif" font-size="12" font-style="italic" lengthAdjust="spacing" textLength="120" x="600" y="27.1543">CompetitionService</text><line style="stroke:#A80036;stroke-width:1.5;" x1="572" x2="722" y1="39" y2="39"/><line style="stroke:#A80036;stroke-width:1.5;" x1="572" x2="722" y1="47" y2="47"/><ellipse cx="582" cy="58" fill="#84BE84" rx="3" ry="3" style="stroke:#038048;stroke-width:1.0;"/><text fill="#000000" font-family="sans-serif" font-size="11" lengthAdjust="spacing" textLength="44" x="591" y="61.2104">create()</text><ellipse cx="582" cy="70.8047" fill="#84BE84" rx="3" ry="3" style="stroke:#038048;stroke-width:1.0;"/><text fill="#000000" font-family="sans-serif" font-size="11" lengthAdjust="spacing" textLength="47" x="591" y="74.0151">update()</text><ellipse cx="582" cy="83.6094" fill="#84BE84" rx="3" ry="3" style="stroke:#038048;stroke-width:1.0;"/><text fill="#000000" font-family="sans-serif" font-size="11" lengthAdjust="spacing" textLength="43" x="591" y="86.8198">delete()</text><ellipse cx="582" cy="96.4141" fill="#84BE84" rx="3" ry="3" style="stroke:#038048;stroke-width:1.0;"/><text fill="#000000" font-family="sans-serif" font-size="11" lengthAdjust="spacing" textLength="34" x="591" y="99.6245">filter()</text><ellipse cx="582" cy="109.2188" fill="#84BE84" rx="3" ry="3" style="stroke:#038048;stroke-width:1.0;"/><text fill="#000000" font-family="sans-serif" font-size="11" lengthAdjust="spacing" textLength="74" x="591" y="112.4292">syncBattles()</text><ellipse cx="582" cy="122.0234" fill="#84BE84" rx="3" ry="3" style="stroke:#038048;stroke-width:1.0;"/><text fill="#000000" font-family="sans-serif" font-size="11" lengthAdjust="spacing" textLength="62" x="591" y="125.2339">addBattle()</text><!--MD5=[0097e006cfde2e45d55048bbe01dc5ee]
class CompetitionSyncService--><rect codeLine="48" fill="#FEFECE" filter="url(#fgrcryagtv7sz)" height="60.8047" id="CompetitionSyncService" style="stroke:#A80036;stroke-width:1.5;" width="182" x="556" y="204.5"/><ellipse cx="571" cy="220.5" fill="#B4A7E5" rx="11" ry="11" style="stroke:#A80036;stroke-width:1.0;"/><path d="M566.9219,216.2656 L566.9219,214.1094 L574.3125,214.1094 L574.3125,216.2656 L571.8438,216.2656 L571.8438,224.3438 L574.3125,224.3438 L574.3125,226.5 L566.9219,226.5 L566.9219,224.3438 L569.3906,224.3438 L569.3906,216.2656 L566.9219,216.2656 Z " fill="#000000"/><text fill="#000000" font-family="sans-serif" font-size="12" font-style="italic" lengthAdjust="spacing" textLength="150" x="585" y="224.6543">CompetitionSyncService</text><line style="stroke:#A80036;stroke-width:1.5;" x1="557" x2="737" y1="236.5" y2="236.5"/><line style="stroke:#A80036;stroke-width:1.5;" x1="557" x2="737" y1="244.5" y2="244.5"/><ellipse cx="567" cy="255.5" fill="#84BE84" rx="3" ry="3" style="stroke:#038048;stroke-width:1.0;"/><text fill="#000000" font-family="sans-serif" font-size="11" lengthAdjust="spacing" textLength="94" x="576" y="258.7104">getCompetition()</text><!--MD5=[291585496970b353346fc514453b6d71]
class ResultsService--><rect codeLine="43" fill="#FEFECE" filter="url(#fgrcryagtv7sz)" height="73.6094" id="ResultsService" style="stroke:#A80036;stroke-width:1.5;" width="165" x="355.5" y="198"/><ellipse cx="390.3" cy="214" fill="#B4A7E5" rx="11" ry="11" style="stroke:#A80036;stroke-width:1.0;"/><path d="M386.2219,209.7656 L386.2219,207.6094 L393.6125,207.6094 L393.6125,209.7656 L391.1438,209.7656 L391.1438,217.8438 L393.6125,217.8438 L393.6125,220 L386.2219,220 L386.2219,217.8438 L388.6906,217.8438 L388.6906,209.7656 L386.2219,209.7656 Z " fill="#000000"/><text fill="#000000" font-family="sans-serif" font-size="12" font-style="italic" lengthAdjust="spacing" textLength="89" x="408.7" y="218.1543">ResultsService</text><line style="stroke:#A80036;stroke-width:1.5;" x1="356.5" x2="519.5" y1="230" y2="230"/><line style="stroke:#A80036;stroke-width:1.5;" x1="356.5" x2="519.5" y1="238" y2="238"/><ellipse cx="366.5" cy="249" fill="#84BE84" rx="3" ry="3" style="stroke:#038048;stroke-width:1.0;"/><text fill="#000000" font-family="sans-serif" font-size="11" lengthAdjust="spacing" textLength="74" x="375.5" y="252.2104">resultScore()</text><ellipse cx="366.5" cy="261.8047" fill="#84BE84" rx="3" ry="3" style="stroke:#038048;stroke-width:1.0;"/><text fill="#000000" font-family="sans-serif" font-size="11" lengthAdjust="spacing" textLength="139" x="375.5" y="265.0151">resultsByGroupService()</text><!--MD5=[9a0c52352db685f00772efdd9f74d595]
link CompetitionService to CompetitionSyncService--><path codeLine="41" d="M647,132.31 C647,154.8 647,179.42 647,198.81 " fill="none" id="CompetitionService-to-CompetitionSyncService" style="stroke:#A80036;stroke-width:1.0;stroke-dasharray:7.0,7.0;"/><polygon fill="#A80036" points="647,204.13,651,195.13,647,199.13,643,195.13,647,204.13" style="stroke:#A80036;stroke-width:1.0;"/><!--MD5=[149c717cc74724a210041556e416f911]
link AuthService to AccountService--><!--MD5=[261a8dba9e3ac69c110790295eb99aca]
link AccountService to AthletService--><!--MD5=[44fff7f3227fe235bb39750b89ca10e8]
link AuthService to TrainerService--><!--MD5=[e47e7940ca9b27b03047bf30dfdd5352]
link TrainerService to RefereeService--><!--MD5=[7b20381c53d5a573fdb915e363e13206]
link RefereeService to ResultsService--><!--MD5=[1e47c63410f812af72fab10d972d8e6e]
@startuml

interface AuthService {
    +auth()
    +checkToken()
}

interface AccountService {
    +getAthlets()
    +getTrainers()
    +getReferees()
    +getCompetitions()
    +updateAccount()
}

interface AthletService {
    +getOwnCompetitions()
    +getResults()
    +updateFields()
}

interface TrainerService {
    +getOwnAthlets()
    +getAthletResults()
    +updateFields()
}

interface RefereeService {
    +getOwnCompetitions()
    +updateFields()
}

interface CompetitionService {
    +create()
    +update()
    +delete()
    +filter()
    +syncBattles()
    +addBattle()
}

CompetitionService ..> CompetitionSyncService

interface ResultsService {
    +resultScore()
    +resultsByGroupService()
}

interface CompetitionSyncService {
    +getCompetition()
}

@enduml

PlantUML version 1.2022.0(Tue Jan 11 19:16:42 MSK 2022)
(GPL source distribution)
Java Runtime: OpenJDK Runtime Environment
JVM: OpenJDK 64-Bit Server VM
Default Encoding: UTF-8
Language: ru
Country: RU
--></g></svg>