<?xml version="1.0" encoding="UTF-8" standalone="no"?><svg xmlns="http://www.w3.org/2000/svg" xmlns:xlink="http://www.w3.org/1999/xlink" contentScriptType="application/ecmascript" contentStyleType="text/css" height="318px" preserveAspectRatio="none" style="width:565px;height:318px;background:#FFFFFF;" version="1.1" viewBox="0 0 565 318" width="565px" zoomAndPan="magnify"><defs><filter height="300%" id="fyngn7ol2k6pc" width="300%" x="-1" y="-1"><feGaussianBlur result="blurOut" stdDeviation="2.0"/><feColorMatrix in="blurOut" result="blurOut2" type="matrix" values="0 0 0 0 0 0 0 0 0 0 0 0 0 0 0 0 0 0 .4 0"/><feOffset dx="4.0" dy="4.0" in="blurOut2" result="blurOut3"/><feBlend in="SourceGraphic" in2="blurOut3" mode="normal"/></filter></defs><g><!--MD5=[b4f586f7c628b5a371c8c0ac9af5f898]
class AuthService--><rect codeLine="2" fill="#FEFECE" filter="url(#fyngn7ol2k6pc)" height="73.6094" id="AuthService" style="stroke:#A80036;stroke-width:1.5;" width="106" x="36.5" y="32.5"/><ellipse cx="51.5" cy="48.5" fill="#B4A7E5" rx="11" ry="11" style="stroke:#A80036;stroke-width:1.0;"/><path d="M47.4219,44.2656 L47.4219,42.1094 L54.8125,42.1094 L54.8125,44.2656 L52.3438,44.2656 L52.3438,52.3438 L54.8125,52.3438 L54.8125,54.5 L47.4219,54.5 L47.4219,52.3438 L49.8906,52.3438 L49.8906,44.2656 L47.4219,44.2656 Z " fill="#000000"/><text fill="#000000" font-family="sans-serif" font-size="12" font-style="italic" lengthAdjust="spacing" textLength="74" x="65.5" y="52.6543">AuthService</text><line style="stroke:#A80036;stroke-width:1.5;" x1="37.5" x2="141.5" y1="64.5" y2="64.5"/><line style="stroke:#A80036;stroke-width:1.5;" x1="37.5" x2="141.5" y1="72.5" y2="72.5"/><ellipse cx="47.5" cy="83.5" fill="#84BE84" rx="3" ry="3" style="stroke:#038048;stroke-width:1.0;"/><text fill="#000000" font-family="sans-serif" font-size="11" lengthAdjust="spacing" textLength="33" x="56.5" y="86.7104">auth()</text><ellipse cx="47.5" cy="96.3047" fill="#84BE84" rx="3" ry="3" style="stroke:#038048;stroke-width:1.0;"/><text fill="#000000" font-family="sans-serif" font-size="11" lengthAdjust="spacing" textLength="74" x="56.5" y="99.5151">checkToken()</text><!--MD5=[b32389d8f9b98a852b7c0b14b54ffe15]
class AthletService--><rect codeLine="7" fill="#FEFECE" filter="url(#fyngn7ol2k6pc)" height="86.4141" id="AthletService" style="stroke:#A80036;stroke-width:1.5;" width="138" x="177.5" y="26.5"/><ellipse cx="203.3" cy="42.5" fill="#B4A7E5" rx="11" ry="11" style="stroke:#A80036;stroke-width:1.0;"/><path d="M199.2219,38.2656 L199.2219,36.1094 L206.6125,36.1094 L206.6125,38.2656 L204.1438,38.2656 L204.1438,46.3438 L206.6125,46.3438 L206.6125,48.5 L199.2219,48.5 L199.2219,46.3438 L201.6906,46.3438 L201.6906,38.2656 L199.2219,38.2656 Z " fill="#000000"/><text fill="#000000" font-family="sans-serif" font-size="12" font-style="italic" lengthAdjust="spacing" textLength="82" x="219.7" y="46.6543">AthletService</text><line style="stroke:#A80036;stroke-width:1.5;" x1="178.5" x2="314.5" y1="58.5" y2="58.5"/><line style="stroke:#A80036;stroke-width:1.5;" x1="178.5" x2="314.5" y1="66.5" y2="66.5"/><ellipse cx="188.5" cy="77.5" fill="#84BE84" rx="3" ry="3" style="stroke:#038048;stroke-width:1.0;"/><text fill="#000000" font-family="sans-serif" font-size="11" lengthAdjust="spacing" textLength="112" x="197.5" y="80.7104">allByGroupService()</text><ellipse cx="188.5" cy="90.3047" fill="#84BE84" rx="3" ry="3" style="stroke:#038048;stroke-width:1.0;"/><text fill="#000000" font-family="sans-serif" font-size="11" lengthAdjust="spacing" textLength="79" x="197.5" y="93.5151">updateAthlet()</text><ellipse cx="188.5" cy="103.1094" fill="#84BE84" rx="3" ry="3" style="stroke:#038048;stroke-width:1.0;"/><text fill="#000000" font-family="sans-serif" font-size="11" lengthAdjust="spacing" textLength="80" x="197.5" y="106.3198">updateFields()</text><!--MD5=[5132919f20c9c4014af42397226f265d]
class CompetitionService--><rect codeLine="13" fill="#FEFECE" filter="url(#fyngn7ol2k6pc)" height="124.8281" id="CompetitionService" style="stroke:#A80036;stroke-width:1.5;" width="152" x="384.5" y="7"/><ellipse cx="399.5" cy="23" fill="#B4A7E5" rx="11" ry="11" style="stroke:#A80036;stroke-width:1.0;"/><path d="M395.4219,18.7656 L395.4219,16.6094 L402.8125,16.6094 L402.8125,18.7656 L400.3438,18.7656 L400.3438,26.8438 L402.8125,26.8438 L402.8125,29 L395.4219,29 L395.4219,26.8438 L397.8906,26.8438 L397.8906,18.7656 L395.4219,18.7656 Z " fill="#000000"/><text fill="#000000" font-family="sans-serif" font-size="12" font-style="italic" lengthAdjust="spacing" textLength="120" x="413.5" y="27.1543">CompetitionService</text><line style="stroke:#A80036;stroke-width:1.5;" x1="385.5" x2="535.5" y1="39" y2="39"/><line style="stroke:#A80036;stroke-width:1.5;" x1="385.5" x2="535.5" y1="47" y2="47"/><ellipse cx="395.5" cy="58" fill="#84BE84" rx="3" ry="3" style="stroke:#038048;stroke-width:1.0;"/><text fill="#000000" font-family="sans-serif" font-size="11" lengthAdjust="spacing" textLength="44" x="404.5" y="61.2104">create()</text><ellipse cx="395.5" cy="70.8047" fill="#84BE84" rx="3" ry="3" style="stroke:#038048;stroke-width:1.0;"/><text fill="#000000" font-family="sans-serif" font-size="11" lengthAdjust="spacing" textLength="47" x="404.5" y="74.0151">update()</text><ellipse cx="395.5" cy="83.6094" fill="#84BE84" rx="3" ry="3" style="stroke:#038048;stroke-width:1.0;"/><text fill="#000000" font-family="sans-serif" font-size="11" lengthAdjust="spacing" textLength="43" x="404.5" y="86.8198">delete()</text><ellipse cx="395.5" cy="96.4141" fill="#84BE84" rx="3" ry="3" style="stroke:#038048;stroke-width:1.0;"/><text fill="#000000" font-family="sans-serif" font-size="11" lengthAdjust="spacing" textLength="34" x="404.5" y="99.6245">filter()</text><ellipse cx="395.5" cy="109.2188" fill="#84BE84" rx="3" ry="3" style="stroke:#038048;stroke-width:1.0;"/><text fill="#000000" font-family="sans-serif" font-size="11" lengthAdjust="spacing" textLength="74" x="404.5" y="112.4292">syncBattles()</text><ellipse cx="395.5" cy="122.0234" fill="#84BE84" rx="3" ry="3" style="stroke:#038048;stroke-width:1.0;"/><text fill="#000000" font-family="sans-serif" font-size="11" lengthAdjust="spacing" textLength="62" x="404.5" y="125.2339">addBattle()</text><!--MD5=[0097e006cfde2e45d55048bbe01dc5ee]
class CompetitionSyncService--><rect codeLine="37" fill="#FEFECE" filter="url(#fyngn7ol2k6pc)" height="60.8047" id="CompetitionSyncService" style="stroke:#A80036;stroke-width:1.5;" width="182" x="369.5" y="217.5"/><ellipse cx="384.5" cy="233.5" fill="#B4A7E5" rx="11" ry="11" style="stroke:#A80036;stroke-width:1.0;"/><path d="M380.4219,229.2656 L380.4219,227.1094 L387.8125,227.1094 L387.8125,229.2656 L385.3438,229.2656 L385.3438,237.3438 L387.8125,237.3438 L387.8125,239.5 L380.4219,239.5 L380.4219,237.3438 L382.8906,237.3438 L382.8906,229.2656 L380.4219,229.2656 Z " fill="#000000"/><text fill="#000000" font-family="sans-serif" font-size="12" font-style="italic" lengthAdjust="spacing" textLength="150" x="398.5" y="237.6543">CompetitionSyncService</text><line style="stroke:#A80036;stroke-width:1.5;" x1="370.5" x2="550.5" y1="249.5" y2="249.5"/><line style="stroke:#A80036;stroke-width:1.5;" x1="370.5" x2="550.5" y1="257.5" y2="257.5"/><ellipse cx="380.5" cy="268.5" fill="#84BE84" rx="3" ry="3" style="stroke:#038048;stroke-width:1.0;"/><text fill="#000000" font-family="sans-serif" font-size="11" lengthAdjust="spacing" textLength="94" x="389.5" y="271.7104">getCompetition()</text><!--MD5=[291585496970b353346fc514453b6d71]
class ResultsService--><rect codeLine="24" fill="#FEFECE" filter="url(#fyngn7ol2k6pc)" height="73.6094" id="ResultsService" style="stroke:#A80036;stroke-width:1.5;" width="165" x="7" y="211"/><ellipse cx="41.8" cy="227" fill="#B4A7E5" rx="11" ry="11" style="stroke:#A80036;stroke-width:1.0;"/><path d="M37.7219,222.7656 L37.7219,220.6094 L45.1125,220.6094 L45.1125,222.7656 L42.6438,222.7656 L42.6438,230.8438 L45.1125,230.8438 L45.1125,233 L37.7219,233 L37.7219,230.8438 L40.1906,230.8438 L40.1906,222.7656 L37.7219,222.7656 Z " fill="#000000"/><text fill="#000000" font-family="sans-serif" font-size="12" font-style="italic" lengthAdjust="spacing" textLength="89" x="60.2" y="231.1543">ResultsService</text><line style="stroke:#A80036;stroke-width:1.5;" x1="8" x2="171" y1="243" y2="243"/><line style="stroke:#A80036;stroke-width:1.5;" x1="8" x2="171" y1="251" y2="251"/><ellipse cx="18" cy="262" fill="#84BE84" rx="3" ry="3" style="stroke:#038048;stroke-width:1.0;"/><text fill="#000000" font-family="sans-serif" font-size="11" lengthAdjust="spacing" textLength="74" x="27" y="265.2104">resultScore()</text><ellipse cx="18" cy="274.8047" fill="#84BE84" rx="3" ry="3" style="stroke:#038048;stroke-width:1.0;"/><text fill="#000000" font-family="sans-serif" font-size="11" lengthAdjust="spacing" textLength="139" x="27" y="278.0151">resultsByGroupService()</text><!--MD5=[6f7241531789e6d1fa9d49faffbe69e8]
class GroupService--><rect codeLine="29" fill="#FEFECE" filter="url(#fyngn7ol2k6pc)" height="112.0234" id="GroupService" style="stroke:#A80036;stroke-width:1.5;" width="127" x="207" y="192"/><ellipse cx="227.4" cy="208" fill="#B4A7E5" rx="11" ry="11" style="stroke:#A80036;stroke-width:1.0;"/><path d="M223.3219,203.7656 L223.3219,201.6094 L230.7125,201.6094 L230.7125,203.7656 L228.2438,203.7656 L228.2438,211.8438 L230.7125,211.8438 L230.7125,214 L223.3219,214 L223.3219,211.8438 L225.7906,211.8438 L225.7906,203.7656 L223.3219,203.7656 Z " fill="#000000"/><text fill="#000000" font-family="sans-serif" font-size="12" font-style="italic" lengthAdjust="spacing" textLength="83" x="242.6" y="212.1543">GroupService</text><line style="stroke:#A80036;stroke-width:1.5;" x1="208" x2="333" y1="224" y2="224"/><line style="stroke:#A80036;stroke-width:1.5;" x1="208" x2="333" y1="232" y2="232"/><ellipse cx="218" cy="243" fill="#84BE84" rx="3" ry="3" style="stroke:#038048;stroke-width:1.0;"/><text fill="#000000" font-family="sans-serif" font-size="11" lengthAdjust="spacing" textLength="65" x="227" y="246.2104">getAthlets()</text><ellipse cx="218" cy="255.8047" fill="#84BE84" rx="3" ry="3" style="stroke:#038048;stroke-width:1.0;"/><text fill="#000000" font-family="sans-serif" font-size="11" lengthAdjust="spacing" textLength="74" x="227" y="259.0151">getTrainers()</text><ellipse cx="218" cy="268.6094" fill="#84BE84" rx="3" ry="3" style="stroke:#038048;stroke-width:1.0;"/><text fill="#000000" font-family="sans-serif" font-size="11" lengthAdjust="spacing" textLength="77" x="227" y="271.8198">getReferees()</text><ellipse cx="218" cy="281.4141" fill="#84BE84" rx="3" ry="3" style="stroke:#038048;stroke-width:1.0;"/><text fill="#000000" font-family="sans-serif" font-size="11" lengthAdjust="spacing" textLength="101" x="227" y="284.6245">getCompetitions()</text><ellipse cx="218" cy="294.2188" fill="#84BE84" rx="3" ry="3" style="stroke:#038048;stroke-width:1.0;"/><text fill="#000000" font-family="sans-serif" font-size="11" lengthAdjust="spacing" textLength="53" x="227" y="297.4292">getMeta()</text><!--MD5=[9a0c52352db685f00772efdd9f74d595]
link CompetitionService to CompetitionSyncService--><path codeLine="22" d="M460.5,132.23 C460.5,159.03 460.5,189.43 460.5,212.21 " fill="none" id="CompetitionService-to-CompetitionSyncService" style="stroke:#A80036;stroke-width:1.0;stroke-dasharray:7.0,7.0;"/><polygon fill="#A80036" points="460.5,217.24,464.5,208.24,460.5,212.24,456.5,208.24,460.5,217.24" style="stroke:#A80036;stroke-width:1.0;"/><!--MD5=[02b5cd8a8f1207ef8627269644581ab5]
link AuthService to AthletService--><!--MD5=[bcdb88adc5b018b4726191cbe09801fa]
link AuthService to ResultsService--><!--MD5=[b84a6bc259af6671b8ddcad86a70a16d]
link ResultsService to GroupService--><!--MD5=[e120a7c7faa54eaae06f32f0859ead9f]
@startuml

interface AuthService {
    +auth()
    +checkToken()
}

interface AthletService {
    +allByGroupService()
    +updateAthlet()
    +updateFields()
}

interface CompetitionService {
    +create()
    +update()
    +delete()
    +filter()
    +syncBattles()
    +addBattle()
}

CompetitionService ..> CompetitionSyncService

interface ResultsService {
    +resultScore()
    +resultsByGroupService()
}

interface GroupService {
    +getAthlets()
    +getTrainers()
    +getReferees()
    +getCompetitions()
    +getMeta()
}

interface CompetitionSyncService {
    +getCompetition()
}

@enduml

PlantUML version 1.2022.0(Tue Jan 11 19:16:42 MSK 2022)
(GPL source distribution)
Java Runtime: OpenJDK Runtime Environment
JVM: OpenJDK 64-Bit Server VM
Default Encoding: UTF-8
Language: ru
Country: RU
--></g></svg>