<?xml version="1.0" encoding="UTF-8" standalone="no"?><svg xmlns="http://www.w3.org/2000/svg" xmlns:xlink="http://www.w3.org/1999/xlink" contentScriptType="application/ecmascript" contentStyleType="text/css" height="280px" preserveAspectRatio="none" style="width:430px;height:280px;background:#FFFFFF;" version="1.1" viewBox="0 0 430 280" width="430px" zoomAndPan="magnify"><defs><filter height="300%" id="f1hto43z2bsy6z" width="300%" x="-1" y="-1"><feGaussianBlur result="blurOut" stdDeviation="2.0"/><feColorMatrix in="blurOut" result="blurOut2" type="matrix" values="0 0 0 0 0 0 0 0 0 0 0 0 0 0 0 0 0 0 .4 0"/><feOffset dx="4.0" dy="4.0" in="blurOut2" result="blurOut3"/><feBlend in="SourceGraphic" in2="blurOut3" mode="normal"/></filter></defs><g><!--MD5=[7727584e4826944d4ad925785137a196]
class Пользователь--><rect codeLine="4" fill="#FEFECE" filter="url(#f1hto43z2bsy6z)" height="112.0234" id="Пользователь" style="stroke:#A80036;stroke-width:1.5;" width="124" x="286" y="7"/><ellipse cx="301" cy="23" fill="#ADD1B2" rx="11" ry="11" style="stroke:#A80036;stroke-width:1.0;"/><path d="M305.1094,29 L297.3906,29 L297.3906,16.6094 L305.1094,16.6094 L305.1094,18.7656 L299.8438,18.7656 L299.8438,21.4375 L304.6094,21.4375 L304.6094,23.5938 L299.8438,23.5938 L299.8438,26.8438 L305.1094,26.8438 L305.1094,29 Z " fill="#000000"/><text fill="#000000" font-family="sans-serif" font-size="12" lengthAdjust="spacing" textLength="92" x="315" y="27.1543">Пользователь</text><line style="stroke:#A80036;stroke-width:1.5;" x1="287" x2="409" y1="39" y2="39"/><text fill="#000000" font-family="sans-serif" font-size="11" lengthAdjust="spacing" textLength="11" x="292" y="53.2104">ID</text><text fill="#000000" font-family="sans-serif" font-size="11" lengthAdjust="spacing" textLength="35" x="292" y="66.0151">IDRole</text><text fill="#000000" font-family="sans-serif" font-size="11" lengthAdjust="spacing" textLength="35" x="292" y="78.8198">Логин</text><text fill="#000000" font-family="sans-serif" font-size="11" lengthAdjust="spacing" textLength="53" x="292" y="91.6245">Телефон</text><text fill="#000000" font-family="sans-serif" font-size="11" lengthAdjust="spacing" textLength="28" x="292" y="104.4292">ФИО</text><line style="stroke:#A80036;stroke-width:1.5;" x1="287" x2="409" y1="111.0234" y2="111.0234"/><!--MD5=[8272429289b81f9007fc84d53d9d6b11]
class Соревнование--><rect codeLine="12" fill="#FEFECE" filter="url(#f1hto43z2bsy6z)" height="124.8281" id="Соревнование" style="stroke:#A80036;stroke-width:1.5;" width="140" x="7" y="74.5"/><ellipse cx="28.3" cy="90.5" fill="#ADD1B2" rx="11" ry="11" style="stroke:#A80036;stroke-width:1.0;"/><path d="M32.4094,96.5 L24.6906,96.5 L24.6906,84.1094 L32.4094,84.1094 L32.4094,86.2656 L27.1438,86.2656 L27.1438,88.9375 L31.9094,88.9375 L31.9094,91.0938 L27.1438,91.0938 L27.1438,94.3438 L32.4094,94.3438 L32.4094,96.5 Z " fill="#000000"/><text fill="#000000" font-family="sans-serif" font-size="12" lengthAdjust="spacing" textLength="94" x="43.7" y="94.6543">Соревнование</text><line style="stroke:#A80036;stroke-width:1.5;" x1="8" x2="146" y1="106.5" y2="106.5"/><text fill="#000000" font-family="sans-serif" font-size="11" lengthAdjust="spacing" textLength="11" x="13" y="120.7104">ID</text><text fill="#000000" font-family="sans-serif" font-size="11" lengthAdjust="spacing" textLength="31" x="13" y="133.5151">Дата</text><text fill="#000000" font-family="sans-serif" font-size="11" lengthAdjust="spacing" textLength="128" x="13" y="146.3198">Возрастая категория</text><text fill="#000000" font-family="sans-serif" font-size="11" lengthAdjust="spacing" textLength="69" x="13" y="159.1245">Тип оружия</text><text fill="#000000" font-family="sans-serif" font-size="11" lengthAdjust="spacing" textLength="23" x="13" y="171.9292">Вид</text><text fill="#000000" font-family="sans-serif" font-size="11" lengthAdjust="spacing" textLength="21" x="13" y="184.7339">Тип</text><line style="stroke:#A80036;stroke-width:1.5;" x1="8" x2="146" y1="191.3281" y2="191.3281"/><!--MD5=[5b66e89722f21078b22f6b2bb8d5c9a0]
class Бой--><rect codeLine="21" fill="#FEFECE" filter="url(#f1hto43z2bsy6z)" height="112.0234" id="Бой" style="stroke:#A80036;stroke-width:1.5;" width="136" x="280" y="154"/><ellipse cx="331.75" cy="170" fill="#ADD1B2" rx="11" ry="11" style="stroke:#A80036;stroke-width:1.0;"/><path d="M335.8594,176 L328.1406,176 L328.1406,163.6094 L335.8594,163.6094 L335.8594,165.7656 L330.5938,165.7656 L330.5938,168.4375 L335.3594,168.4375 L335.3594,170.5938 L330.5938,170.5938 L330.5938,173.8438 L335.8594,173.8438 L335.8594,176 Z " fill="#000000"/><text fill="#000000" font-family="sans-serif" font-size="12" lengthAdjust="spacing" textLength="24" x="352.25" y="174.1543">Бой</text><line style="stroke:#A80036;stroke-width:1.5;" x1="281" x2="415" y1="186" y2="186"/><text fill="#000000" font-family="sans-serif" font-size="11" lengthAdjust="spacing" textLength="11" x="286" y="200.2104">ID</text><text fill="#000000" font-family="sans-serif" font-size="11" lengthAdjust="spacing" textLength="86" x="286" y="213.0151">ID победителя</text><text fill="#000000" font-family="sans-serif" font-size="11" lengthAdjust="spacing" textLength="101" x="286" y="225.8198">ID проигравшего</text><text fill="#000000" font-family="sans-serif" font-size="11" lengthAdjust="spacing" textLength="104" x="286" y="238.6245">Счет победителя</text><text fill="#000000" font-family="sans-serif" font-size="11" lengthAdjust="spacing" textLength="124" x="286" y="251.4292">Счет проишравшего</text><line style="stroke:#A80036;stroke-width:1.5;" x1="281" x2="415" y1="258.0234" y2="258.0234"/><!--MD5=[c071507557f5df6cb0a8ba45e1461e80]
reverse link Соревнование to Бой--><path codeLine="29" d="M154.06,157.64 C193.64,168.38 241.61,181.4 279.82,191.77 " fill="none" id="Соревнование-backto-Бой" style="stroke:#A80036;stroke-width:1.0;"/><line style="stroke:#A80036;stroke-width:1.0;" x1="150.0863" x2="152.176" y1="160.706" y2="152.9837"/><line style="stroke:#A80036;stroke-width:1.0;" x1="152.9821" x2="155.0718" y1="161.4896" y2="153.7674"/><line style="stroke:#A80036;stroke-width:1.0;" x1="154.9922" x2="147.27" y1="157.8897" y2="155.8"/><!--MD5=[892760e827fea785c071cad8a6ba09b2]
link Соревнование to Пользователь--><path codeLine="31" d="M155.17,115.77 C193.87,105.12 240.37,92.33 277.89,82.01 " fill="none" id="Соревнование-Пользователь" style="stroke:#A80036;stroke-width:1.0;"/><line style="stroke:#A80036;stroke-width:1.0;" x1="278.0345" x2="284.164" y1="81.9646" y2="74.0634"/><line style="stroke:#A80036;stroke-width:1.0;" x1="278.0345" x2="287.336" y1="81.9646" y2="85.6366"/><line style="stroke:#A80036;stroke-width:1.0;" x1="278.0345" x2="285.75" y1="81.9646" y2="79.85"/><ellipse cx="272.2479" cy="83.5506" rx="4" ry="4" style="stroke:#A80036;stroke-width:1.0;fill:none;"/><line style="stroke:#A80036;stroke-width:1.0;fill:none;" x1="154.9818" x2="148.8659" y1="115.8121" y2="123.7239"/><line style="stroke:#A80036;stroke-width:1.0;fill:none;" x1="154.9818" x2="145.6741" y1="115.8121" y2="112.1561"/><line style="stroke:#A80036;stroke-width:1.0;fill:none;" x1="154.9818" x2="147.27" y1="115.8121" y2="117.94"/><ellipse cx="160.7657" cy="114.2162" rx="4" ry="4" style="stroke:#A80036;stroke-width:1.0;fill:none;"/><text fill="#000000" font-family="sans-serif" font-size="13" lengthAdjust="spacing" textLength="71" x="178" y="88.0669">участвует</text><!--MD5=[8590183ee463a944ede4c571a0c4ab37]
@startuml er

left to right direction

entity Пользователь {
    ID 
    IDRole
    Логин 
    Телефон 
    ФИО
}

entity Соревнование {
    ID
    Дата
    Возрастая категория
    Тип оружия
    Вид
    Тип
}

entity Бой {
    ID
    ID победителя
    ID проигравшего
    Счет победителя
    Счет проишравшего
}

Соревнование ||- - Бой

Соревнование }o- -o{ Пользователь : участвует

@enduml

PlantUML version 1.2022.0(Tue Jan 11 19:16:42 MSK 2022)
(GPL source distribution)
Java Runtime: OpenJDK Runtime Environment
JVM: OpenJDK 64-Bit Server VM
Default Encoding: UTF-8
Language: ru
Country: RU
--></g></svg>