<?xml version="1.0" encoding="UTF-8" standalone="no"?><svg xmlns="http://www.w3.org/2000/svg" xmlns:xlink="http://www.w3.org/1999/xlink" contentScriptType="application/ecmascript" contentStyleType="text/css" height="356px" preserveAspectRatio="none" style="width:326px;height:356px;background:#FFFFFF;" version="1.1" viewBox="0 0 326 356" width="326px" zoomAndPan="magnify"><defs><filter height="300%" id="fdvgcc1g0vrxa" width="300%" x="-1" y="-1"><feGaussianBlur result="blurOut" stdDeviation="2.0"/><feColorMatrix in="blurOut" result="blurOut2" type="matrix" values="0 0 0 0 0 0 0 0 0 0 0 0 0 0 0 0 0 0 .4 0"/><feOffset dx="4.0" dy="4.0" in="blurOut2" result="blurOut3"/><feBlend in="SourceGraphic" in2="blurOut3" mode="normal"/></filter></defs><g><!--MD5=[7727584e4826944d4ad925785137a196]
class Пользователь--><rect codeLine="2" fill="#FEFECE" filter="url(#fdvgcc1g0vrxa)" height="112.0234" id="Пользователь" style="stroke:#A80036;stroke-width:1.5;" width="124" x="13" y="13.5"/><ellipse cx="28" cy="29.5" fill="#ADD1B2" rx="11" ry="11" style="stroke:#A80036;stroke-width:1.0;"/><path d="M32.1094,35.5 L24.3906,35.5 L24.3906,23.1094 L32.1094,23.1094 L32.1094,25.2656 L26.8438,25.2656 L26.8438,27.9375 L31.6094,27.9375 L31.6094,30.0938 L26.8438,30.0938 L26.8438,33.3438 L32.1094,33.3438 L32.1094,35.5 Z " fill="#000000"/><text fill="#000000" font-family="sans-serif" font-size="12" lengthAdjust="spacing" textLength="92" x="42" y="33.6543">Пользователь</text><line style="stroke:#A80036;stroke-width:1.5;" x1="14" x2="136" y1="45.5" y2="45.5"/><text fill="#000000" font-family="sans-serif" font-size="11" lengthAdjust="spacing" textLength="11" x="19" y="59.7104">ID</text><text fill="#000000" font-family="sans-serif" font-size="11" lengthAdjust="spacing" textLength="35" x="19" y="72.5151">IDRole</text><text fill="#000000" font-family="sans-serif" font-size="11" lengthAdjust="spacing" textLength="35" x="19" y="85.3198">Логин</text><text fill="#000000" font-family="sans-serif" font-size="11" lengthAdjust="spacing" textLength="53" x="19" y="98.1245">Телефон</text><text fill="#000000" font-family="sans-serif" font-size="11" lengthAdjust="spacing" textLength="28" x="19" y="110.9292">ФИО</text><line style="stroke:#A80036;stroke-width:1.5;" x1="14" x2="136" y1="117.5234" y2="117.5234"/><!--MD5=[8272429289b81f9007fc84d53d9d6b11]
class Соревнование--><rect codeLine="10" fill="#FEFECE" filter="url(#fdvgcc1g0vrxa)" height="124.8281" id="Соревнование" style="stroke:#A80036;stroke-width:1.5;" width="140" x="172" y="7"/><ellipse cx="193.3" cy="23" fill="#ADD1B2" rx="11" ry="11" style="stroke:#A80036;stroke-width:1.0;"/><path d="M197.4094,29 L189.6906,29 L189.6906,16.6094 L197.4094,16.6094 L197.4094,18.7656 L192.1438,18.7656 L192.1438,21.4375 L196.9094,21.4375 L196.9094,23.5938 L192.1438,23.5938 L192.1438,26.8438 L197.4094,26.8438 L197.4094,29 Z " fill="#000000"/><text fill="#000000" font-family="sans-serif" font-size="12" lengthAdjust="spacing" textLength="94" x="208.7" y="27.1543">Соревнование</text><line style="stroke:#A80036;stroke-width:1.5;" x1="173" x2="311" y1="39" y2="39"/><text fill="#000000" font-family="sans-serif" font-size="11" lengthAdjust="spacing" textLength="11" x="178" y="53.2104">ID</text><text fill="#000000" font-family="sans-serif" font-size="11" lengthAdjust="spacing" textLength="31" x="178" y="66.0151">Дата</text><text fill="#000000" font-family="sans-serif" font-size="11" lengthAdjust="spacing" textLength="128" x="178" y="78.8198">Возрастая категория</text><text fill="#000000" font-family="sans-serif" font-size="11" lengthAdjust="spacing" textLength="69" x="178" y="91.6245">Тип оружия</text><text fill="#000000" font-family="sans-serif" font-size="11" lengthAdjust="spacing" textLength="23" x="178" y="104.4292">Вид</text><text fill="#000000" font-family="sans-serif" font-size="11" lengthAdjust="spacing" textLength="21" x="178" y="117.2339">Тип</text><line style="stroke:#A80036;stroke-width:1.5;" x1="173" x2="311" y1="123.8281" y2="123.8281"/><!--MD5=[5b66e89722f21078b22f6b2bb8d5c9a0]
class Бой--><rect codeLine="19" fill="#FEFECE" filter="url(#fdvgcc1g0vrxa)" height="112.0234" id="Бой" style="stroke:#A80036;stroke-width:1.5;" width="136" x="7" y="211"/><ellipse cx="58.75" cy="227" fill="#ADD1B2" rx="11" ry="11" style="stroke:#A80036;stroke-width:1.0;"/><path d="M62.8594,233 L55.1406,233 L55.1406,220.6094 L62.8594,220.6094 L62.8594,222.7656 L57.5938,222.7656 L57.5938,225.4375 L62.3594,225.4375 L62.3594,227.5938 L57.5938,227.5938 L57.5938,230.8438 L62.8594,230.8438 L62.8594,233 Z " fill="#000000"/><text fill="#000000" font-family="sans-serif" font-size="12" lengthAdjust="spacing" textLength="24" x="79.25" y="231.1543">Бой</text><line style="stroke:#A80036;stroke-width:1.5;" x1="8" x2="142" y1="243" y2="243"/><text fill="#000000" font-family="sans-serif" font-size="11" lengthAdjust="spacing" textLength="11" x="13" y="257.2104">ID</text><text fill="#000000" font-family="sans-serif" font-size="11" lengthAdjust="spacing" textLength="86" x="13" y="270.0151">ID победителя</text><text fill="#000000" font-family="sans-serif" font-size="11" lengthAdjust="spacing" textLength="101" x="13" y="282.8198">ID проигравшего</text><text fill="#000000" font-family="sans-serif" font-size="11" lengthAdjust="spacing" textLength="104" x="13" y="295.6245">Счет победителя</text><text fill="#000000" font-family="sans-serif" font-size="11" lengthAdjust="spacing" textLength="124" x="13" y="308.4292">Счет проишравшего</text><line style="stroke:#A80036;stroke-width:1.5;" x1="8" x2="142" y1="315.0234" y2="315.0234"/><!--MD5=[2a3f318aeecd2ce97203958b3da0920a]
class Спортсмен--><rect codeLine="27" fill="#FEFECE" filter="url(#fdvgcc1g0vrxa)" height="150.4375" id="Спортсмен" style="stroke:#A80036;stroke-width:1.5;" width="123" x="178.5" y="192"/><ellipse cx="201.6" cy="208" fill="#ADD1B2" rx="11" ry="11" style="stroke:#A80036;stroke-width:1.0;"/><path d="M205.7094,214 L197.9906,214 L197.9906,201.6094 L205.7094,201.6094 L205.7094,203.7656 L200.4438,203.7656 L200.4438,206.4375 L205.2094,206.4375 L205.2094,208.5938 L200.4438,208.5938 L200.4438,211.8438 L205.7094,211.8438 L205.7094,214 Z " fill="#000000"/><text fill="#000000" font-family="sans-serif" font-size="12" lengthAdjust="spacing" textLength="73" x="217.4" y="212.1543">Спортсмен</text><line style="stroke:#A80036;stroke-width:1.5;" x1="179.5" x2="300.5" y1="224" y2="224"/><text fill="#000000" font-family="sans-serif" font-size="11" lengthAdjust="spacing" textLength="11" x="184.5" y="238.2104">ID</text><text fill="#000000" font-family="sans-serif" font-size="11" lengthAdjust="spacing" textLength="95" x="184.5" y="251.0151">День рождения</text><text fill="#000000" font-family="sans-serif" font-size="11" lengthAdjust="spacing" textLength="69" x="184.5" y="263.8198">Тип оружия</text><text fill="#000000" font-family="sans-serif" font-size="11" lengthAdjust="spacing" textLength="22" x="184.5" y="276.6245">Пол</text><text fill="#000000" font-family="sans-serif" font-size="11" lengthAdjust="spacing" textLength="72" x="184.5" y="289.4292">Субъект РФ</text><text fill="#000000" font-family="sans-serif" font-size="11" lengthAdjust="spacing" textLength="111" x="184.5" y="302.2339">Вооруженная рука</text><text fill="#000000" font-family="sans-serif" font-size="11" lengthAdjust="spacing" textLength="57" x="184.5" y="315.0386">Лицензия</text><text fill="#000000" font-family="sans-serif" font-size="11" lengthAdjust="spacing" textLength="63" x="184.5" y="327.8433">Страховка</text><line style="stroke:#A80036;stroke-width:1.5;" x1="179.5" x2="300.5" y1="334.4375" y2="334.4375"/><!--MD5=[336fd0a8c3709ee17e1ae2f19cb5e1db]
link Пользователь to Соревнование--><!--MD5=[f44c8be857b25e15f63cc424c87e4a13]
link Пользователь to Бой--><!--MD5=[0685ac4c01b45c2669b0c26d404286b8]
link Бой to Спортсмен--><!--MD5=[d65949360683903f52c513dc582226d8]
@startuml systemEntities

entity Пользователь {
    ID 
    IDRole
    Логин 
    Телефон 
    ФИО
}

entity Соревнование {
    ID
    Дата
    Возрастая категория
    Тип оружия
    Вид
    Тип
}

entity Бой {
    ID
    ID победителя
    ID проигравшего
    Счет победителя
    Счет проишравшего
}

entity Спортсмен {
    ID
    День рождения
    Тип оружия
    Пол
    Субъект РФ
    Вооруженная рука
    Лицензия
    Страховка
}

@enduml

PlantUML version 1.2022.0(Tue Jan 11 19:16:42 MSK 2022)
(GPL source distribution)
Java Runtime: OpenJDK Runtime Environment
JVM: OpenJDK 64-Bit Server VM
Default Encoding: UTF-8
Language: ru
Country: RU
--></g></svg>