<?xml version="1.0" encoding="UTF-8" standalone="no"?><svg xmlns="http://www.w3.org/2000/svg" xmlns:xlink="http://www.w3.org/1999/xlink" contentScriptType="application/ecmascript" contentStyleType="text/css" height="756px" preserveAspectRatio="none" style="width:1091px;height:756px;background:#FFFFFF;" version="1.1" viewBox="0 0 1091 756" width="1091px" zoomAndPan="magnify"><defs><filter height="300%" id="f157stj5jokm3y" width="300%" x="-1" y="-1"><feGaussianBlur result="blurOut" stdDeviation="2.0"/><feColorMatrix in="blurOut" result="blurOut2" type="matrix" values="0 0 0 0 0 0 0 0 0 0 0 0 0 0 0 0 0 0 .4 0"/><feOffset dx="4.0" dy="4.0" in="blurOut2" result="blurOut3"/><feBlend in="SourceGraphic" in2="blurOut3" mode="normal"/></filter></defs><g><!--MD5=[13663db996397864a81eeec43ee880e8]
entity Гость--><ellipse cx="48" cy="680" fill="#FEFECE" filter="url(#f157stj5jokm3y)" rx="8" ry="8" style="stroke:#A80036;stroke-width:1.5;"/><path d="M48,688 L48,715 M35,696 L61,696 M48,715 L35,730 M48,715 L61,730 " fill="none" filter="url(#f157stj5jokm3y)" style="stroke:#A80036;stroke-width:1.5;"/><text fill="#000000" font-family="sans-serif" font-size="14" lengthAdjust="spacing" textLength="42" x="27" y="748.4951">Гость</text><ellipse cx="297.6781" cy="711.1356" fill="#FEFECE" filter="url(#f157stj5jokm3y)" rx="71.1781" ry="16.6356" style="stroke:#A80036;stroke-width:1.5;"/><text fill="#000000" font-family="sans-serif" font-size="14" lengthAdjust="spacing" textLength="96" x="246.6781" y="714.8832">Авторизация</text><!--MD5=[9b685d01420225b3f167fc02345d238c]
entity Спортсмен--><ellipse cx="297.5" cy="128" fill="#FEFECE" filter="url(#f157stj5jokm3y)" rx="8" ry="8" style="stroke:#A80036;stroke-width:1.5;"/><path d="M297.5,136 L297.5,163 M284.5,144 L310.5,144 M297.5,163 L284.5,178 M297.5,163 L310.5,178 " fill="none" filter="url(#f157stj5jokm3y)" style="stroke:#A80036;stroke-width:1.5;"/><text fill="#000000" font-family="sans-serif" font-size="14" lengthAdjust="spacing" textLength="82" x="256.5" y="196.4951">Спортсмен</text><ellipse cx="635.5567" cy="75.0113" fill="#FEFECE" filter="url(#f157stj5jokm3y)" rx="90.5567" ry="20.5113" style="stroke:#A80036;stroke-width:1.5;"/><text fill="#000000" font-family="sans-serif" font-size="14" lengthAdjust="spacing" textLength="143" x="564.0567" y="77.858">Просмотр профиля</text><ellipse cx="635.4752" cy="158.895" fill="#FEFECE" filter="url(#f157stj5jokm3y)" rx="127.4752" ry="27.895" style="stroke:#A80036;stroke-width:1.5;"/><text fill="#000000" font-family="sans-serif" font-size="14" lengthAdjust="spacing" textLength="170" x="545.4752" y="154.4942">Просмотр результатов</text><text fill="#000000" font-family="sans-serif" font-size="14" lengthAdjust="spacing" textLength="104" x="582.4752" y="170.791">соревнований</text><ellipse cx="635.6651" cy="248.833" fill="#FEFECE" filter="url(#f157stj5jokm3y)" rx="122.1651" ry="26.833" style="stroke:#A80036;stroke-width:1.5;"/><text fill="#000000" font-family="sans-serif" font-size="14" lengthAdjust="spacing" textLength="155" x="553.1651" y="244.4321">Просмотр календаря</text><text fill="#000000" font-family="sans-serif" font-size="14" lengthAdjust="spacing" textLength="104" x="582.6651" y="260.729">соревнований</text><ellipse cx="953.1693" cy="249.1339" fill="#FEFECE" filter="url(#f157stj5jokm3y)" rx="93.6693" ry="21.1339" style="stroke:#A80036;stroke-width:1.5;"/><text fill="#000000" font-family="sans-serif" font-size="14" lengthAdjust="spacing" textLength="150" x="878.1693" y="251.9805">Фильтрация данных</text><ellipse cx="952.8908" cy="33.7782" fill="#FEFECE" filter="url(#f157stj5jokm3y)" rx="126.8908" ry="27.7782" style="stroke:#A80036;stroke-width:1.5;"/><text fill="#000000" font-family="sans-serif" font-size="14" lengthAdjust="spacing" textLength="222" x="841.8908" y="36.6248">Редактирование информации</text><ellipse cx="952.9744" cy="116.8949" fill="#FEFECE" filter="url(#f157stj5jokm3y)" rx="87.4744" ry="19.8949" style="stroke:#A80036;stroke-width:1.5;"/><text fill="#000000" font-family="sans-serif" font-size="14" lengthAdjust="spacing" textLength="136" x="884.9744" y="119.7416">Выход из системы</text><!--MD5=[b24819d7008d2c272cef5af327c6beb4]
entity Модератор--><ellipse cx="48" cy="366" fill="#FEFECE" filter="url(#f157stj5jokm3y)" rx="8" ry="8" style="stroke:#A80036;stroke-width:1.5;"/><path d="M48,374 L48,401 M35,382 L61,382 M48,401 L35,416 M48,401 L61,416 " fill="none" filter="url(#f157stj5jokm3y)" style="stroke:#A80036;stroke-width:1.5;"/><text fill="#000000" font-family="sans-serif" font-size="14" lengthAdjust="spacing" textLength="84" x="6" y="434.4951">Модератор</text><ellipse cx="297.4685" cy="261.8937" fill="#FEFECE" filter="url(#f157stj5jokm3y)" rx="124.9685" ry="27.3937" style="stroke:#A80036;stroke-width:1.5;"/><text fill="#000000" font-family="sans-serif" font-size="14" lengthAdjust="spacing" textLength="163" x="210.9685" y="257.4928">Загрузка информации</text><text fill="#000000" font-family="sans-serif" font-size="14" lengthAdjust="spacing" textLength="123" x="234.9685" y="273.7897">о соревнованиях</text><ellipse cx="297.4685" cy="351.8937" fill="#FEFECE" filter="url(#f157stj5jokm3y)" rx="124.9685" ry="27.3937" style="stroke:#A80036;stroke-width:1.5;"/><text fill="#000000" font-family="sans-serif" font-size="14" lengthAdjust="spacing" textLength="163" x="210.9685" y="347.4928">Загрузка информации</text><text fill="#000000" font-family="sans-serif" font-size="14" lengthAdjust="spacing" textLength="108" x="242.4685" y="363.7897">о спортсменах</text><ellipse cx="297.4685" cy="441.8937" fill="#FEFECE" filter="url(#f157stj5jokm3y)" rx="124.9685" ry="27.3937" style="stroke:#A80036;stroke-width:1.5;"/><text fill="#000000" font-family="sans-serif" font-size="14" lengthAdjust="spacing" textLength="163" x="210.9685" y="437.4928">Загрузка информации</text><text fill="#000000" font-family="sans-serif" font-size="14" lengthAdjust="spacing" textLength="82" x="255.4685" y="453.7897">о тренерах</text><ellipse cx="297.4685" cy="531.8937" fill="#FEFECE" filter="url(#f157stj5jokm3y)" rx="124.9685" ry="27.3937" style="stroke:#A80036;stroke-width:1.5;"/><text fill="#000000" font-family="sans-serif" font-size="14" lengthAdjust="spacing" textLength="163" x="210.9685" y="527.4928">Загрузка информации</text><text fill="#000000" font-family="sans-serif" font-size="14" lengthAdjust="spacing" textLength="61" x="265.9685" y="543.7897">о судьях</text><ellipse cx="297.3955" cy="626.8791" fill="#FEFECE" filter="url(#f157stj5jokm3y)" rx="147.3955" ry="31.8791" style="stroke:#A80036;stroke-width:1.5;"/><text fill="#000000" font-family="sans-serif" font-size="14" lengthAdjust="spacing" textLength="222" x="181.3955" y="622.4782">Редактирование информации</text><text fill="#000000" font-family="sans-serif" font-size="14" lengthAdjust="spacing" textLength="123" x="234.8955" y="638.7751">о соревнованиях</text><ellipse cx="635.6751" cy="539.035" fill="#FEFECE" filter="url(#f157stj5jokm3y)" rx="130.6751" ry="28.535" style="stroke:#A80036;stroke-width:1.5;"/><text fill="#000000" font-family="sans-serif" font-size="14" lengthAdjust="spacing" textLength="230" x="520.6751" y="541.8817">Редактирование соревнования</text><ellipse cx="635.3276" cy="626.7655" fill="#FEFECE" filter="url(#f157stj5jokm3y)" rx="106.8276" ry="23.7655" style="stroke:#A80036;stroke-width:1.5;"/><text fill="#000000" font-family="sans-serif" font-size="14" lengthAdjust="spacing" textLength="179" x="545.8276" y="629.6122">Создание соревнования</text><ellipse cx="635.3679" cy="710.1736" fill="#FEFECE" filter="url(#f157stj5jokm3y)" rx="106.3679" ry="23.6736" style="stroke:#A80036;stroke-width:1.5;"/><text fill="#000000" font-family="sans-serif" font-size="14" lengthAdjust="spacing" textLength="178" x="546.3679" y="713.0203">Удаление соревнования</text><!--MD5=[58ff5970b5519266c6ed6cf94b651216]
link Гость to Авторизация--><path d="M69.25,711 C102.14,711 168.75,711 221.4,711 " fill="none" id="Гость-to-Авторизация" style="stroke:#A80036;stroke-width:1.0;"/><polygon fill="#A80036" points="226.45,711,217.45,707,221.45,711,217.45,715,226.45,711" style="stroke:#A80036;stroke-width:1.0;"/><!--MD5=[4132717efc52da9199ef15e78a145ab4]
link Спортсмен to Просмотр профиля--><path d="M338.7,148.95 C395.77,134.68 500.93,108.39 569.26,91.31 " fill="none" id="Спортсмен-to-Просмотр профиля" style="stroke:#A80036;stroke-width:1.0;"/><polygon fill="#A80036" points="574.11,90.1,564.4086,88.4023,569.2593,91.3127,566.3489,96.1634,574.11,90.1" style="stroke:#A80036;stroke-width:1.0;"/><!--MD5=[df0e7e1b90091c731ae85abd7984ec4c]
link Спортсмен to Просмотр результатов \n соревнований--><path d="M338.7,159 C379.19,159 443.9,159 502.48,159 " fill="none" id="Спортсмен-to-Просмотр результатов \n соревнований" style="stroke:#A80036;stroke-width:1.0;"/><polygon fill="#A80036" points="507.77,159,498.77,155,502.77,159,498.77,163,507.77,159" style="stroke:#A80036;stroke-width:1.0;"/><!--MD5=[97b972ec54eb3a78fabb17bf3d0cf039]
link Спортсмен to Просмотр календаря \n соревнований--><path d="M338.7,169.77 C391.17,183.82 484.31,208.77 552.09,226.93 " fill="none" id="Спортсмен-to-Просмотр календаря \n соревнований" style="stroke:#A80036;stroke-width:1.0;"/><polygon fill="#A80036" points="556.92,228.22,549.2694,222.0178,552.0919,226.9201,547.1896,229.7427,556.92,228.22" style="stroke:#A80036;stroke-width:1.0;"/><!--MD5=[fce988c2d0bb90a85a51f6aa790c6227]
link Просмотр календаря \n соревнований to Фильтрация данных--><path d="M757.58,249 C789.45,249 823.43,249 853.92,249 " fill="none" id="Просмотр календаря \n соревнований-to-Фильтрация данных" style="stroke:#A80036;stroke-width:1.0;"/><polygon fill="#A80036" points="859.18,249,850.18,245,854.18,249,850.18,253,859.18,249" style="stroke:#A80036;stroke-width:1.0;"/><!--MD5=[c168cf5172c27c9098108ef9e650a3a6]
link Просмотр профиля to Редактирование информации--><path d="M714.49,64.87 C751.75,60.02 797.07,54.13 838.09,48.8 " fill="none" id="Просмотр профиля-to-Редактирование информации" style="stroke:#A80036;stroke-width:1.0;"/><polygon fill="#A80036" points="843.07,48.16,833.6313,45.3472,838.1113,48.8012,834.6573,53.2812,843.07,48.16" style="stroke:#A80036;stroke-width:1.0;"/><!--MD5=[58af498d86543006aceaa8ac6224cf5a]
link Просмотр профиля to Выход из системы--><path d="M714.08,85.33 C761.97,91.7 823.27,99.86 871.66,106.3 " fill="none" id="Просмотр профиля-to-Выход из системы" style="stroke:#A80036;stroke-width:1.0;"/><polygon fill="#A80036" points="876.89,107,868.4937,101.852,871.9334,106.3429,867.4424,109.7826,876.89,107" style="stroke:#A80036;stroke-width:1.0;"/><!--MD5=[60536d4302c9c707ac87bee00365a697]
link Модератор to Загрузка информации \n о соревнованиях--><path d="M86.69,356.32 C104.49,339.09 126.88,320.02 150,307 C167.1,297.37 186.5,289.55 205.47,283.31 " fill="none" id="Модератор-to-Загрузка информации \n о соревнованиях" style="stroke:#A80036;stroke-width:1.0;"/><polygon fill="#A80036" points="210.28,281.75,200.485,280.7217,205.5239,283.2925,202.953,288.3314,210.28,281.75" style="stroke:#A80036;stroke-width:1.0;"/><!--MD5=[0ea91782d55a9ea5ed75fe22cad1ce37]
link Модератор to Загрузка информации \n о спортсменах--><path d="M90.15,389.52 C118.96,384.28 158.76,377.04 195.73,370.32 " fill="none" id="Модератор-to-Загрузка информации \n о спортсменах" style="stroke:#A80036;stroke-width:1.0;"/><polygon fill="#A80036" points="200.69,369.42,191.1179,367.1018,195.7713,370.3182,192.555,374.9717,200.69,369.42" style="stroke:#A80036;stroke-width:1.0;"/><!--MD5=[2d0374fc97bfed58336418bcd61fa26f]
link Модератор to Загрузка информации \n о тренерах--><path d="M90.15,404.48 C118.96,409.72 158.76,416.96 195.73,423.68 " fill="none" id="Модератор-to-Загрузка информации \n о тренерах" style="stroke:#A80036;stroke-width:1.0;"/><polygon fill="#A80036" points="200.69,424.58,192.555,419.0283,195.7713,423.6818,191.1179,426.8982,200.69,424.58" style="stroke:#A80036;stroke-width:1.0;"/><!--MD5=[6bb614fcc14aac117d0f3db8e7e48de8]
link Модератор to Загрузка информации \n о судьях--><path d="M86.69,437.68 C104.49,454.91 126.88,473.98 150,487 C167.1,496.63 186.5,504.45 205.47,510.69 " fill="none" id="Модератор-to-Загрузка информации \n о судьях" style="stroke:#A80036;stroke-width:1.0;"/><polygon fill="#A80036" points="210.28,512.25,202.953,505.6686,205.5239,510.7075,200.485,513.2783,210.28,512.25" style="stroke:#A80036;stroke-width:1.0;"/><!--MD5=[81fbc7d47e621402c75e772926049f2e]
link Модератор to Редактирование информации \n о соревнованиях--><path d="M62.08,437.72 C77.14,478.41 105.66,540.09 150,577 C162.17,587.13 176.49,595.24 191.34,601.73 " fill="none" id="Модератор-to-Редактирование информации \n о соревнованиях" style="stroke:#A80036;stroke-width:1.0;"/><polygon fill="#A80036" points="195.96,603.7,189.2444,596.4958,191.3591,601.7425,186.1124,603.8572,195.96,603.7" style="stroke:#A80036;stroke-width:1.0;"/><!--MD5=[c65672d88e099905f0fd801d5f2a63f0]
link Модератор to Спортсмен--><path d="M62.6,356.34 C77.99,315.99 106.69,254.85 150,217 C178.84,191.8 219.95,176.81 251.29,168.41 " fill="none" id="Модератор-to-Спортсмен" style="stroke:#A80036;stroke-width:1.0;"/><polygon fill="#A80036" points="256.23,167.12,246.5081,165.5436,251.3948,168.3932,248.5452,173.2799,256.23,167.12" style="stroke:#A80036;stroke-width:1.0;"/><!--MD5=[bed44ee487ce0ccb47edd81301d22854]
link Редактирование информации \n о соревнованиях to Редактирование соревнования--><path d="M392.54,602.37 C440.59,589.79 498.72,574.56 545.96,562.19 " fill="none" id="Редактирование информации \n о соревнованиях-to-Редактирование соревнования" style="stroke:#A80036;stroke-width:1.0;"/><polygon fill="#A80036" points="551.08,560.85,541.3637,559.2397,546.2404,562.1063,543.3738,566.983,551.08,560.85" style="stroke:#A80036;stroke-width:1.0;"/><!--MD5=[0821e8d77601693157c63d81ab04f287]
link Редактирование информации \n о соревнованиях to Создание соревнования--><path d="M445.39,627 C471.43,627 498.17,627 523.04,627 " fill="none" id="Редактирование информации \n о соревнованиях-to-Создание соревнования" style="stroke:#A80036;stroke-width:1.0;"/><polygon fill="#A80036" points="528.31,627,519.31,623,523.31,627,519.31,631,528.31,627" style="stroke:#A80036;stroke-width:1.0;"/><!--MD5=[0d4cf9a40888e392ec6399a00033c784]
link Редактирование информации \n о соревнованиях to Удаление соревнования--><path d="M395.69,651.01 C447.68,663.85 510.76,679.43 559.03,691.36 " fill="none" id="Редактирование информации \n о соревнованиях-to-Удаление соревнования" style="stroke:#A80036;stroke-width:1.0;"/><polygon fill="#A80036" points="563.95,692.57,556.1721,686.5281,559.0959,691.3708,554.2533,694.2946,563.95,692.57" style="stroke:#A80036;stroke-width:1.0;"/><!--MD5=[1e2ea91d7751ea4c6ba5cd505f083922]
@startuml usecase

left to right direction

:Гость: - -> (Авторизация)

:Спортсмен: - -> (Просмотр профиля)
:Спортсмен: - -> (Просмотр результатов \n соревнований)
:Спортсмен: - -> (Просмотр календаря \n соревнований)

(Просмотр календаря \n соревнований) - -> (Фильтрация данных)

(Просмотр профиля) - -> (Редактирование информации)
(Просмотр профиля) - -> (Выход из системы)

' :Тренер: - -> :Спортсмен:
' :Тренер: - -> (Просмотр карточек \n своих спортсменов)
' :Тренер: - -> (Просмотр результатов \n соревнований)
' :Тренер: - -> (Просмотр календаря \n соревнований)

' :Судья: - -> :Спортсмен:
' :Судья: - -> (Просмотр календаря \n соревнований)

:Модератор: - -> (Загрузка информации \n о соревнованиях)
:Модератор: - -> (Загрузка информации \n о спортсменах)
:Модератор: - -> (Загрузка информации \n о тренерах)
:Модератор: - -> (Загрузка информации \n о судьях)
:Модератор: - -> (Редактирование информации \n о соревнованиях)
:Модератор: - -> :Спортсмен:

(Редактирование информации \n о соревнованиях) - -> (Редактирование соревнования)
(Редактирование информации \n о соревнованиях) - -> (Создание соревнования)
(Редактирование информации \n о соревнованиях) - -> (Удаление соревнования)

@enduml

@startuml usecase

left to right direction

:Гость: - -> (Авторизация)

:Спортсмен: - -> (Просмотр профиля)
:Спортсмен: - -> (Просмотр результатов \n соревнований)
:Спортсмен: - -> (Просмотр календаря \n соревнований)

(Просмотр календаря \n соревнований) - -> (Фильтрация данных)

(Просмотр профиля) - -> (Редактирование информации)
(Просмотр профиля) - -> (Выход из системы)



:Модератор: - -> (Загрузка информации \n о соревнованиях)
:Модератор: - -> (Загрузка информации \n о спортсменах)
:Модератор: - -> (Загрузка информации \n о тренерах)
:Модератор: - -> (Загрузка информации \n о судьях)
:Модератор: - -> (Редактирование информации \n о соревнованиях)
:Модератор: - -> :Спортсмен:

(Редактирование информации \n о соревнованиях) - -> (Редактирование соревнования)
(Редактирование информации \n о соревнованиях) - -> (Создание соревнования)
(Редактирование информации \n о соревнованиях) - -> (Удаление соревнования)

@enduml

PlantUML version 1.2022.0(Tue Jan 11 19:16:42 MSK 2022)
(GPL source distribution)
Java Runtime: OpenJDK Runtime Environment
JVM: OpenJDK 64-Bit Server VM
Default Encoding: UTF-8
Language: ru
Country: RU
--></g></svg>