<?xml version="1.0" encoding="UTF-8" standalone="no"?><svg xmlns="http://www.w3.org/2000/svg" xmlns:xlink="http://www.w3.org/1999/xlink" contentScriptType="application/ecmascript" contentStyleType="text/css" height="931px" preserveAspectRatio="none" style="width:1091px;height:931px;background:#FFFFFF;" version="1.1" viewBox="0 0 1091 931" width="1091px" zoomAndPan="magnify"><defs><filter height="300%" id="f10gphmx7vcnu" width="300%" x="-1" y="-1"><feGaussianBlur result="blurOut" stdDeviation="2.0"/><feColorMatrix in="blurOut" result="blurOut2" type="matrix" values="0 0 0 0 0 0 0 0 0 0 0 0 0 0 0 0 0 0 .4 0"/><feOffset dx="4.0" dy="4.0" in="blurOut2" result="blurOut3"/><feBlend in="SourceGraphic" in2="blurOut3" mode="normal"/></filter></defs><g><!--MD5=[13663db996397864a81eeec43ee880e8]
entity Гость--><ellipse cx="48" cy="855" fill="#FEFECE" filter="url(#f10gphmx7vcnu)" rx="8" ry="8" style="stroke:#A80036;stroke-width:1.5;"/><path d="M48,863 L48,890 M35,871 L61,871 M48,890 L35,905 M48,890 L61,905 " fill="none" filter="url(#f10gphmx7vcnu)" style="stroke:#A80036;stroke-width:1.5;"/><text fill="#000000" font-family="sans-serif" font-size="14" lengthAdjust="spacing" textLength="42" x="27" y="923.4951">Гость</text><ellipse cx="297.6781" cy="886.1356" fill="#FEFECE" filter="url(#f10gphmx7vcnu)" rx="71.1781" ry="16.6356" style="stroke:#A80036;stroke-width:1.5;"/><text fill="#000000" font-family="sans-serif" font-size="14" lengthAdjust="spacing" textLength="96" x="246.6781" y="889.8832">Авторизация</text><!--MD5=[9b685d01420225b3f167fc02345d238c]
entity Спортсмен--><ellipse cx="297.5" cy="143" fill="#FEFECE" filter="url(#f10gphmx7vcnu)" rx="8" ry="8" style="stroke:#A80036;stroke-width:1.5;"/><path d="M297.5,151 L297.5,178 M284.5,159 L310.5,159 M297.5,178 L284.5,193 M297.5,178 L310.5,193 " fill="none" filter="url(#f10gphmx7vcnu)" style="stroke:#A80036;stroke-width:1.5;"/><text fill="#000000" font-family="sans-serif" font-size="14" lengthAdjust="spacing" textLength="82" x="256.5" y="211.4951">Спортсмен</text><ellipse cx="635.5567" cy="174.0113" fill="#FEFECE" filter="url(#f10gphmx7vcnu)" rx="90.5567" ry="20.5113" style="stroke:#A80036;stroke-width:1.5;"/><text fill="#000000" font-family="sans-serif" font-size="14" lengthAdjust="spacing" textLength="143" x="564.0567" y="176.858">Просмотр профиля</text><ellipse cx="635.4752" cy="262.895" fill="#FEFECE" filter="url(#f10gphmx7vcnu)" rx="127.4752" ry="27.895" style="stroke:#A80036;stroke-width:1.5;"/><text fill="#000000" font-family="sans-serif" font-size="14" lengthAdjust="spacing" textLength="170" x="545.4752" y="258.4942">Просмотр результатов</text><text fill="#000000" font-family="sans-serif" font-size="14" lengthAdjust="spacing" textLength="104" x="582.4752" y="274.791">соревнований</text><ellipse cx="635.6651" cy="79.833" fill="#FEFECE" filter="url(#f10gphmx7vcnu)" rx="122.1651" ry="26.833" style="stroke:#A80036;stroke-width:1.5;"/><text fill="#000000" font-family="sans-serif" font-size="14" lengthAdjust="spacing" textLength="155" x="553.1651" y="75.4321">Просмотр календаря</text><text fill="#000000" font-family="sans-serif" font-size="14" lengthAdjust="spacing" textLength="104" x="582.6651" y="91.729">соревнований</text><ellipse cx="953.1693" cy="80.1339" fill="#FEFECE" filter="url(#f10gphmx7vcnu)" rx="93.6693" ry="21.1339" style="stroke:#A80036;stroke-width:1.5;"/><text fill="#000000" font-family="sans-serif" font-size="14" lengthAdjust="spacing" textLength="150" x="878.1693" y="82.9805">Фильтрация данных</text><ellipse cx="952.8908" cy="168.7782" fill="#FEFECE" filter="url(#f10gphmx7vcnu)" rx="126.8908" ry="27.7782" style="stroke:#A80036;stroke-width:1.5;"/><text fill="#000000" font-family="sans-serif" font-size="14" lengthAdjust="spacing" textLength="222" x="841.8908" y="171.6248">Редактирование информации</text><ellipse cx="952.9744" cy="251.8949" fill="#FEFECE" filter="url(#f10gphmx7vcnu)" rx="87.4744" ry="19.8949" style="stroke:#A80036;stroke-width:1.5;"/><text fill="#000000" font-family="sans-serif" font-size="14" lengthAdjust="spacing" textLength="136" x="884.9744" y="254.7416">Выход из системы</text><!--MD5=[ae85f067cded7f0c9a431b1189c9ad86]
entity Тренер--><ellipse cx="48" cy="201" fill="#FEFECE" filter="url(#f10gphmx7vcnu)" rx="8" ry="8" style="stroke:#A80036;stroke-width:1.5;"/><path d="M48,209 L48,236 M35,217 L61,217 M48,236 L35,251 M48,236 L61,251 " fill="none" filter="url(#f10gphmx7vcnu)" style="stroke:#A80036;stroke-width:1.5;"/><text fill="#000000" font-family="sans-serif" font-size="14" lengthAdjust="spacing" textLength="54" x="21" y="269.4951">Тренер</text><ellipse cx="297.4902" cy="347.7793" fill="#FEFECE" filter="url(#f10gphmx7vcnu)" rx="117.9902" ry="26.2793" style="stroke:#A80036;stroke-width:1.5;"/><text fill="#000000" font-family="sans-serif" font-size="14" lengthAdjust="spacing" textLength="145" x="219.9902" y="343.3784">Просмотр карточек</text><text fill="#000000" font-family="sans-serif" font-size="14" lengthAdjust="spacing" textLength="142" x="225.4902" y="359.6753">своих спортсменов</text><!--MD5=[fc063423bfb89b7337f8513dd50f2df2]
entity Судья--><ellipse cx="48" cy="14" fill="#FEFECE" filter="url(#f10gphmx7vcnu)" rx="8" ry="8" style="stroke:#A80036;stroke-width:1.5;"/><path d="M48,22 L48,49 M35,30 L61,30 M48,49 L35,64 M48,49 L61,64 " fill="none" filter="url(#f10gphmx7vcnu)" style="stroke:#A80036;stroke-width:1.5;"/><text fill="#000000" font-family="sans-serif" font-size="14" lengthAdjust="spacing" textLength="43" x="26.5" y="82.4951">Судья</text><!--MD5=[b24819d7008d2c272cef5af327c6beb4]
entity Модератор--><ellipse cx="48" cy="541" fill="#FEFECE" filter="url(#f10gphmx7vcnu)" rx="8" ry="8" style="stroke:#A80036;stroke-width:1.5;"/><path d="M48,549 L48,576 M35,557 L61,557 M48,576 L35,591 M48,576 L61,591 " fill="none" filter="url(#f10gphmx7vcnu)" style="stroke:#A80036;stroke-width:1.5;"/><text fill="#000000" font-family="sans-serif" font-size="14" lengthAdjust="spacing" textLength="84" x="6" y="609.4951">Модератор</text><ellipse cx="297.4685" cy="436.8937" fill="#FEFECE" filter="url(#f10gphmx7vcnu)" rx="124.9685" ry="27.3937" style="stroke:#A80036;stroke-width:1.5;"/><text fill="#000000" font-family="sans-serif" font-size="14" lengthAdjust="spacing" textLength="163" x="210.9685" y="432.4928">Загрузка информации</text><text fill="#000000" font-family="sans-serif" font-size="14" lengthAdjust="spacing" textLength="123" x="234.9685" y="448.7897">о соревнованиях</text><ellipse cx="297.4685" cy="526.8937" fill="#FEFECE" filter="url(#f10gphmx7vcnu)" rx="124.9685" ry="27.3937" style="stroke:#A80036;stroke-width:1.5;"/><text fill="#000000" font-family="sans-serif" font-size="14" lengthAdjust="spacing" textLength="163" x="210.9685" y="522.4928">Загрузка информации</text><text fill="#000000" font-family="sans-serif" font-size="14" lengthAdjust="spacing" textLength="108" x="242.4685" y="538.7897">о спортсменах</text><ellipse cx="297.4685" cy="616.8937" fill="#FEFECE" filter="url(#f10gphmx7vcnu)" rx="124.9685" ry="27.3937" style="stroke:#A80036;stroke-width:1.5;"/><text fill="#000000" font-family="sans-serif" font-size="14" lengthAdjust="spacing" textLength="163" x="210.9685" y="612.4928">Загрузка информации</text><text fill="#000000" font-family="sans-serif" font-size="14" lengthAdjust="spacing" textLength="82" x="255.4685" y="628.7897">о тренерах</text><ellipse cx="297.4685" cy="706.8937" fill="#FEFECE" filter="url(#f10gphmx7vcnu)" rx="124.9685" ry="27.3937" style="stroke:#A80036;stroke-width:1.5;"/><text fill="#000000" font-family="sans-serif" font-size="14" lengthAdjust="spacing" textLength="163" x="210.9685" y="702.4928">Загрузка информации</text><text fill="#000000" font-family="sans-serif" font-size="14" lengthAdjust="spacing" textLength="61" x="265.9685" y="718.7897">о судьях</text><ellipse cx="297.3955" cy="801.8791" fill="#FEFECE" filter="url(#f10gphmx7vcnu)" rx="147.3955" ry="31.8791" style="stroke:#A80036;stroke-width:1.5;"/><text fill="#000000" font-family="sans-serif" font-size="14" lengthAdjust="spacing" textLength="222" x="181.3955" y="797.4782">Редактирование информации</text><text fill="#000000" font-family="sans-serif" font-size="14" lengthAdjust="spacing" textLength="123" x="234.8955" y="813.7751">о соревнованиях</text><ellipse cx="635.6751" cy="714.035" fill="#FEFECE" filter="url(#f10gphmx7vcnu)" rx="130.6751" ry="28.535" style="stroke:#A80036;stroke-width:1.5;"/><text fill="#000000" font-family="sans-serif" font-size="14" lengthAdjust="spacing" textLength="230" x="520.6751" y="716.8817">Редактирование соревнования</text><ellipse cx="635.3276" cy="801.7655" fill="#FEFECE" filter="url(#f10gphmx7vcnu)" rx="106.8276" ry="23.7655" style="stroke:#A80036;stroke-width:1.5;"/><text fill="#000000" font-family="sans-serif" font-size="14" lengthAdjust="spacing" textLength="179" x="545.8276" y="804.6122">Создание соревнования</text><ellipse cx="635.3679" cy="885.1736" fill="#FEFECE" filter="url(#f10gphmx7vcnu)" rx="106.3679" ry="23.6736" style="stroke:#A80036;stroke-width:1.5;"/><text fill="#000000" font-family="sans-serif" font-size="14" lengthAdjust="spacing" textLength="178" x="546.3679" y="888.0203">Удаление соревнования</text><!--MD5=[58ff5970b5519266c6ed6cf94b651216]
link Гость to Авторизация--><path d="M69.25,886 C102.14,886 168.75,886 221.4,886 " fill="none" id="Гость-to-Авторизация" style="stroke:#A80036;stroke-width:1.0;"/><polygon fill="#A80036" points="226.45,886,217.45,882,221.45,886,217.45,890,226.45,886" style="stroke:#A80036;stroke-width:1.0;"/><!--MD5=[4132717efc52da9199ef15e78a145ab4]
link Спортсмен to Просмотр профиля--><path d="M338.7,174 C388.01,174 473.24,174 539.58,174 " fill="none" id="Спортсмен-to-Просмотр профиля" style="stroke:#A80036;stroke-width:1.0;"/><polygon fill="#A80036" points="544.73,174,535.73,170,539.73,174,535.73,178,544.73,174" style="stroke:#A80036;stroke-width:1.0;"/><!--MD5=[df0e7e1b90091c731ae85abd7984ec4c]
link Спортсмен to Просмотр результатов \n соревнований--><path d="M338.7,184.65 C390.14,198.27 480.64,222.25 548.04,240.1 " fill="none" id="Спортсмен-to-Просмотр результатов \n соревнований" style="stroke:#A80036;stroke-width:1.0;"/><polygon fill="#A80036" points="553.26,241.48,545.5923,235.2989,548.4284,240.1935,543.5338,243.0296,553.26,241.48" style="stroke:#A80036;stroke-width:1.0;"/><!--MD5=[97b972ec54eb3a78fabb17bf3d0cf039]
link Спортсмен to Просмотр календаря \n соревнований--><path d="M338.7,162.75 C391.68,147.93 486.13,121.51 554.06,102.5 " fill="none" id="Спортсмен-to-Просмотр календаря \n соревнований" style="stroke:#A80036;stroke-width:1.0;"/><polygon fill="#A80036" points="558.9,101.15,549.1562,99.7152,554.0838,102.4934,551.3056,107.421,558.9,101.15" style="stroke:#A80036;stroke-width:1.0;"/><!--MD5=[fce988c2d0bb90a85a51f6aa790c6227]
link Просмотр календаря \n соревнований to Фильтрация данных--><path d="M757.58,80 C789.45,80 823.43,80 853.92,80 " fill="none" id="Просмотр календаря \n соревнований-to-Фильтрация данных" style="stroke:#A80036;stroke-width:1.0;"/><polygon fill="#A80036" points="859.18,80,850.18,76,854.18,80,850.18,84,859.18,80" style="stroke:#A80036;stroke-width:1.0;"/><!--MD5=[c168cf5172c27c9098108ef9e650a3a6]
link Просмотр профиля to Редактирование информации--><path d="M726.07,172.58 C755.64,172.11 789.17,171.58 821.17,171.07 " fill="none" id="Просмотр профиля-to-Редактирование информации" style="stroke:#A80036;stroke-width:1.0;"/><polygon fill="#A80036" points="826.29,170.99,817.2338,167.119,821.2905,171.0614,817.3481,175.1182,826.29,170.99" style="stroke:#A80036;stroke-width:1.0;"/><!--MD5=[58af498d86543006aceaa8ac6224cf5a]
link Просмотр профиля to Выход из системы--><path d="M697.33,189.04 C752.08,202.58 832.27,222.4 887.98,236.17 " fill="none" id="Просмотр профиля-to-Выход из системы" style="stroke:#A80036;stroke-width:1.0;"/><polygon fill="#A80036" points="892.96,237.4,885.1821,231.3581,888.1059,236.2008,883.2633,239.1246,892.96,237.4" style="stroke:#A80036;stroke-width:1.0;"/><!--MD5=[dbf5ec3ecae1e33bd093bff9bb3b322a]
link Тренер to Спортсмен--><path d="M75.02,225.9 C116.86,216.1 199.62,196.7 251.28,184.6 " fill="none" id="Тренер-to-Спортсмен" style="stroke:#A80036;stroke-width:1.0;"/><polygon fill="#A80036" points="256.18,183.45,246.5031,181.6177,251.3129,184.5952,248.3354,189.405,256.18,183.45" style="stroke:#A80036;stroke-width:1.0;"/><!--MD5=[c30596041ade662b4a5bff1f11d8264e]
link Тренер to Просмотр карточек \n своих спортсменов--><path d="M75.19,250.07 C95.12,263.31 123.53,281.15 150,294 C173.55,305.43 200.18,315.92 224.21,324.55 " fill="none" id="Тренер-to-Просмотр карточек \n своих спортсменов" style="stroke:#A80036;stroke-width:1.0;"/><polygon fill="#A80036" points="228.98,326.25,221.8588,319.4464,224.2736,324.562,219.158,326.9767,228.98,326.25" style="stroke:#A80036;stroke-width:1.0;"/><!--MD5=[ee1be09477faff9ad38c25f8f3732152]
link Тренер to Просмотр результатов \n соревнований--><path d="M75.3,233.39 C149.66,237.33 365.2,248.74 505.93,256.19 " fill="none" id="Тренер-to-Просмотр результатов \n соревнований" style="stroke:#A80036;stroke-width:1.0;"/><polygon fill="#A80036" points="511.33,256.48,502.5608,251.9967,506.3374,256.2082,502.1259,259.9848,511.33,256.48" style="stroke:#A80036;stroke-width:1.0;"/><!--MD5=[e0ea89d5590d971dc651f100d0ade6e0]
link Тренер to Просмотр календаря \n соревнований--><path d="M72.59,191.3 C90.28,164.92 117.05,132.5 150,116 C268.29,56.76 423.51,56.6 526,65.36 " fill="none" id="Тренер-to-Просмотр календаря \n соревнований" style="stroke:#A80036;stroke-width:1.0;"/><polygon fill="#A80036" points="531.15,65.81,522.5392,61.0294,526.1696,65.3676,521.8314,68.998,531.15,65.81" style="stroke:#A80036;stroke-width:1.0;"/><!--MD5=[17a9007c9196bc246cb1f2d10fcde71f]
link Судья to Спортсмен--><path d="M69.68,55.78 C109.57,76.57 197.96,122.64 251.86,150.74 " fill="none" id="Судья-to-Спортсмен" style="stroke:#A80036;stroke-width:1.0;"/><polygon fill="#A80036" points="256.33,153.06,250.2061,145.3465,251.8986,150.7442,246.5009,152.4367,256.33,153.06" style="stroke:#A80036;stroke-width:1.0;"/><!--MD5=[a316c420b0158a0788df278d16e5a697]
link Судья to Просмотр календаря \n соревнований--><path d="M69.65,44.64 C128.45,43.81 301.73,42.58 445,54 C472.89,56.22 502.95,59.8 530.73,63.6 " fill="none" id="Судья-to-Просмотр календаря \n соревнований" style="stroke:#A80036;stroke-width:1.0;"/><polygon fill="#A80036" points="535.89,64.31,527.5083,59.1382,530.9352,63.6389,526.4346,67.0658,535.89,64.31" style="stroke:#A80036;stroke-width:1.0;"/><!--MD5=[60536d4302c9c707ac87bee00365a697]
link Модератор to Загрузка информации \n о соревнованиях--><path d="M86.69,531.32 C104.49,514.09 126.88,495.02 150,482 C167.1,472.37 186.5,464.55 205.47,458.31 " fill="none" id="Модератор-to-Загрузка информации \n о соревнованиях" style="stroke:#A80036;stroke-width:1.0;"/><polygon fill="#A80036" points="210.28,456.75,200.485,455.7217,205.5239,458.2925,202.953,463.3314,210.28,456.75" style="stroke:#A80036;stroke-width:1.0;"/><!--MD5=[0ea91782d55a9ea5ed75fe22cad1ce37]
link Модератор to Загрузка информации \n о спортсменах--><path d="M90.15,564.52 C118.96,559.28 158.76,552.04 195.73,545.32 " fill="none" id="Модератор-to-Загрузка информации \n о спортсменах" style="stroke:#A80036;stroke-width:1.0;"/><polygon fill="#A80036" points="200.69,544.42,191.1179,542.1018,195.7713,545.3182,192.555,549.9717,200.69,544.42" style="stroke:#A80036;stroke-width:1.0;"/><!--MD5=[2d0374fc97bfed58336418bcd61fa26f]
link Модератор to Загрузка информации \n о тренерах--><path d="M90.15,579.48 C118.96,584.72 158.76,591.96 195.73,598.68 " fill="none" id="Модератор-to-Загрузка информации \n о тренерах" style="stroke:#A80036;stroke-width:1.0;"/><polygon fill="#A80036" points="200.69,599.58,192.555,594.0283,195.7713,598.6818,191.1179,601.8982,200.69,599.58" style="stroke:#A80036;stroke-width:1.0;"/><!--MD5=[6bb614fcc14aac117d0f3db8e7e48de8]
link Модератор to Загрузка информации \n о судьях--><path d="M86.69,612.68 C104.49,629.91 126.88,648.98 150,662 C167.1,671.63 186.5,679.45 205.47,685.69 " fill="none" id="Модератор-to-Загрузка информации \n о судьях" style="stroke:#A80036;stroke-width:1.0;"/><polygon fill="#A80036" points="210.28,687.25,202.953,680.6686,205.5239,685.7075,200.485,688.2783,210.28,687.25" style="stroke:#A80036;stroke-width:1.0;"/><!--MD5=[81fbc7d47e621402c75e772926049f2e]
link Модератор to Редактирование информации \n о соревнованиях--><path d="M62.08,612.72 C77.14,653.41 105.66,715.09 150,752 C162.17,762.13 176.49,770.24 191.34,776.73 " fill="none" id="Модератор-to-Редактирование информации \n о соревнованиях" style="stroke:#A80036;stroke-width:1.0;"/><polygon fill="#A80036" points="195.96,778.7,189.2444,771.4958,191.3591,776.7425,186.1124,778.8572,195.96,778.7" style="stroke:#A80036;stroke-width:1.0;"/><!--MD5=[c65672d88e099905f0fd801d5f2a63f0]
link Модератор to Спортсмен--><path d="M57.78,531.43 C71.09,476.3 100.25,376.3 150,304 C177.58,263.92 220.09,228.03 252.23,204.17 " fill="none" id="Модератор-to-Спортсмен" style="stroke:#A80036;stroke-width:1.0;"/><polygon fill="#A80036" points="256.49,201.03,246.8727,203.1532,252.4662,203.9979,251.6214,209.5914,256.49,201.03" style="stroke:#A80036;stroke-width:1.0;"/><!--MD5=[bed44ee487ce0ccb47edd81301d22854]
link Редактирование информации \n о соревнованиях to Редактирование соревнования--><path d="M392.54,777.37 C440.59,764.79 498.72,749.56 545.96,737.19 " fill="none" id="Редактирование информации \n о соревнованиях-to-Редактирование соревнования" style="stroke:#A80036;stroke-width:1.0;"/><polygon fill="#A80036" points="551.08,735.85,541.3637,734.2397,546.2404,737.1063,543.3738,741.983,551.08,735.85" style="stroke:#A80036;stroke-width:1.0;"/><!--MD5=[0821e8d77601693157c63d81ab04f287]
link Редактирование информации \n о соревнованиях to Создание соревнования--><path d="M445.39,802 C471.43,802 498.17,802 523.04,802 " fill="none" id="Редактирование информации \n о соревнованиях-to-Создание соревнования" style="stroke:#A80036;stroke-width:1.0;"/><polygon fill="#A80036" points="528.31,802,519.31,798,523.31,802,519.31,806,528.31,802" style="stroke:#A80036;stroke-width:1.0;"/><!--MD5=[0d4cf9a40888e392ec6399a00033c784]
link Редактирование информации \n о соревнованиях to Удаление соревнования--><path d="M395.69,826.01 C447.68,838.85 510.76,854.43 559.03,866.36 " fill="none" id="Редактирование информации \n о соревнованиях-to-Удаление соревнования" style="stroke:#A80036;stroke-width:1.0;"/><polygon fill="#A80036" points="563.95,867.57,556.1721,861.5281,559.0959,866.3708,554.2533,869.2946,563.95,867.57" style="stroke:#A80036;stroke-width:1.0;"/><!--MD5=[5ad421db8ad9b4f93d19a309806f0127]
@startuml usecase

left to right direction

:Гость: - -> (Авторизация)

:Спортсмен: - -> (Просмотр профиля)
:Спортсмен: - -> (Просмотр результатов \n соревнований)
:Спортсмен: - -> (Просмотр календаря \n соревнований)

(Просмотр календаря \n соревнований) - -> (Фильтрация данных)

(Просмотр профиля) - -> (Редактирование информации)
(Просмотр профиля) - -> (Выход из системы)

:Тренер: - -> :Спортсмен:
:Тренер: - -> (Просмотр карточек \n своих спортсменов)
:Тренер: - -> (Просмотр результатов \n соревнований)
:Тренер: - -> (Просмотр календаря \n соревнований)

:Судья: - -> :Спортсмен:
:Судья: - -> (Просмотр календаря \n соревнований)

:Модератор: - -> (Загрузка информации \n о соревнованиях)
:Модератор: - -> (Загрузка информации \n о спортсменах)
:Модератор: - -> (Загрузка информации \n о тренерах)
:Модератор: - -> (Загрузка информации \n о судьях)
:Модератор: - -> (Редактирование информации \n о соревнованиях)
:Модератор: - -> :Спортсмен:

(Редактирование информации \n о соревнованиях) - -> (Редактирование соревнования)
(Редактирование информации \n о соревнованиях) - -> (Создание соревнования)
(Редактирование информации \n о соревнованиях) - -> (Удаление соревнования)

@enduml

PlantUML version 1.2022.0(Tue Jan 11 19:16:42 MSK 2022)
(GPL source distribution)
Java Runtime: OpenJDK Runtime Environment
JVM: OpenJDK 64-Bit Server VM
Default Encoding: UTF-8
Language: ru
Country: RU
--></g></svg>